<svg xmlns="http://www.w3.org/2000/svg" width="145.619" height="122.153" viewBox="0 0 145.619 122.153">
  <g id="Group_614" data-name="Group 614" transform="translate(-1710.414 -490.211)">
    <g id="Group_608" data-name="Group 608" transform="translate(1710.414 490.211)">
      <path id="Path_1470" data-name="Path 1470" d="M472.045,450.527l-2.416-2.738a8.52,8.52,0,0,0-10.935-1.6L431.482,463.18a3.057,3.057,0,0,0,3.237,5.186l27.211-16.986a2.426,2.426,0,0,1,3.115.454l2.416,2.738a2.424,2.424,0,0,1-.159,3.386l-36.447,34.228a19.492,19.492,0,0,1-11.074,5.126l-49.863,5.653a3.057,3.057,0,0,0,.34,6.094,3.121,3.121,0,0,0,.348-.02l49.863-5.653a25.642,25.642,0,0,0,14.571-6.744l36.447-34.227A8.51,8.51,0,0,0,472.045,450.527Z" transform="translate(-328.579 -402.566)" fill="#ffa25f"/>
      <path id="Path_1471" data-name="Path 1471" d="M224.78,531.74c3.7-8.408,12.135-15.23,21.477-17.38,6.574-1.513,12.452-.434,16.546,3.039l1.008.855,20.533-2.328a1.192,1.192,0,0,1,1.319,1.05l.734,6.473a1.194,1.194,0,0,1-1.05,1.319l-23.481,2.663a3.056,3.056,0,1,0,.689,6.074l23.481-2.663a7.314,7.314,0,0,0,6.436-8.081l-.734-6.474a7.3,7.3,0,0,0-8.081-6.435l-17.967,2.036c-5.5-4.081-12.83-5.32-20.8-3.486a38.646,38.646,0,0,0-23.4,16.584l-1.382-4.159-23.5,7.811,14.814,44.573,23.5-7.812-10.855-32.659A3.037,3.037,0,0,0,224.78,531.74Zm-9.494,33.744-10.958-32.971,11.9-3.955,10.959,32.971Z" transform="translate(-196.599 -451.06)" fill="#ffa25f"/>
      <path id="Path_1472" data-name="Path 1472" d="M431.946,257.958c-10.693,0-23.294,7.688-28.723,15.165a11.549,11.549,0,0,1-.33-1.128c-.463-1.933-.8-5.328.222-10.521a2.377,2.377,0,0,0-4.665-.919,30.345,30.345,0,0,0-.306,11.983c-8.446-5-19.358-6.965-28.06-4.693-8.188,2.139-15.328,12.977-16.115,14.205l-1.086,1.695,1.128,1.667c.336.5,7.532,10.913,19.081,10.913a19.979,19.979,0,0,0,4.444-.508c12.756-2.9,25.511-14.284,26.047-14.767l.06-.054a20.832,20.832,0,0,1,4.394,10.659,31.505,31.505,0,0,1,.257,5.853,21.157,21.157,0,0,0-10.394,4.635c-3.472,2.982-5.2,6.8-4.869,10.749a3.057,3.057,0,0,0,3.043,2.8q.129,0,.26-.011a3.057,3.057,0,0,0,2.79-3.3c-.364-4.327,4.923-8.453,11.546-9.011a15.527,15.527,0,0,1,9.232,1.894c2.195,1.321,3.494,3.117,3.657,5.059a3.057,3.057,0,0,0,6.092-.513c-.333-3.95-2.675-7.424-6.6-9.784a20.871,20.871,0,0,0-9.979-2.815,31.563,31.563,0,0,0-2.861-14.76c5.153,1.676,12.41,3.527,19.318,3.527.984,0,1.961-.037,2.924-.118,8.556-.72,12.779-5.644,14.815-9.648a21.99,21.99,0,0,0,2.29-8.4l.042-1.273-.875-.926c-.283-.3-7.052-7.36-16.1-7.645C432.4,257.962,432.176,257.958,431.946,257.958Zm-55.767,31.9c-7.629,1.736-13.4-3.5-15.838-6.279,2.477-3.377,7.125-8.73,11.288-9.817,7.668-2,17.836.166,25.042,5.081C392.446,282.162,384.124,288.048,376.179,289.856Zm65.555-16.246c-1.948,3.7-5.243,5.774-9.791,6.157-8.1.684-17.844-2.347-22.9-4.2,4.909-5.8,15.521-11.736,23.393-11.49,4.838.153,9.021,3.238,10.855,4.818A16.03,16.03,0,0,1,441.734,273.61Z" transform="translate(-317.499 -257.958)" fill="#ffa25f"/>
    </g>
  </g>
</svg>
