<svg xmlns="http://www.w3.org/2000/svg" width="188.759" height="151.917" viewBox="0 0 188.759 151.917">
  <g id="Group_661" data-name="Group 661" transform="translate(-84.656 -165.724)">
    <path id="Path_1529" data-name="Path 1529" d="M317.18,239.106a12.71,12.71,0,0,0,9.8,4.595,13.35,13.35,0,0,0,2.584-.254c1.649-.325,2.032-.422,2.438-.525.346-.088.738-.187,2.617-.562a3.054,3.054,0,0,0-1.194-5.99c-2.034.405-2.487.521-2.925.632-.324.082-.629.16-2.116.453a6.779,6.779,0,0,1-7.66-9.1c2.879-7.512,4.809-17.238,5.9-29.732a29.429,29.429,0,0,1,58.684.9c.759,12.095,2.6,21.126,5.785,28.424a6.773,6.773,0,0,1-7.6,9.359c-1.046-.221-1.472-.328-1.883-.432-.6-.152-1.121-.283-2.951-.636a3.054,3.054,0,0,0-1.156,6c1.659.32,2.079.426,2.611.56.446.113.952.241,2.115.486a12.88,12.88,0,0,0,14.462-17.78c-2.894-6.623-4.573-15-5.286-26.362a35.533,35.533,0,0,0-70.864-1.051c-1.039,11.92-2.844,21.1-5.516,28.078A12.745,12.745,0,0,0,317.18,239.106Z" transform="translate(-177.334)" fill="#ffa25f"/>
    <path id="Path_1530" data-name="Path 1530" d="M273.387,357.148c0-.029.01-.057.013-.086s0-.075.006-.112.007-.087.007-.131l0-22.392A18.734,18.734,0,0,0,254.7,315.714a2.363,2.363,0,0,0-1.329.406,2.367,2.367,0,0,0-1.057-.391l-1.565-8.2a2.369,2.369,0,0,0-1.182-1.632,22.438,22.438,0,0,0,2.8-3.546,34.117,34.117,0,0,0,5.006-16.973,11.88,11.88,0,0,1,.165-1.729l.1-.576a12.552,12.552,0,0,1,.4-1.559c.8-2.513,2.275-8.824-1.166-13.133-4.224-5.29-16.316-9.659-28.031-4.1-4.219,2-6.92,4.8-8.029,8.318a14.015,14.015,0,0,0,1.141,10.277l.477.838.16.046a2.387,2.387,0,0,0-.053.5,34.477,34.477,0,0,0,4.763,17.681,23.8,23.8,0,0,0,2.28,3.115,2.358,2.358,0,0,0-.529,1.162l-1.466,9.507a2.715,2.715,0,0,1-2.36,0,18.573,18.573,0,0,0-13.414,5.669,2.367,2.367,0,0,0-.673,1.688,27.824,27.824,0,0,0-9.649-1.717h-5.918l-1.15-6.027a3.054,3.054,0,0,0-6,1.145l.932,4.883H168.641l1.482-9.609a16.167,16.167,0,0,0,9.165,3.014c6.795,0,13.127-4.624,17.831-13.02,4.24-7.569,6.672-17.535,6.672-27.342l-.031-3.648c0-11.045-12.207-15.305-12.727-15.481l-1.272-.429-1.177.645a58.676,58.676,0,0,1-14.964,5.471c-15.1,2.785-19.391,12.635-18.376,20.926,1.05,8.565,3.843,16.574,7.867,22.553q.93,1.382,1.931,2.588a3.04,3.04,0,0,0-.583,1.378l-2,12.955h-5.876a27.842,27.842,0,0,0-8.956,1.471,3.04,3.04,0,0,0-.854-1.9c-.305-.315-.629-.626-.964-.927a19.38,19.38,0,0,0-12.973-4.967,3.04,3.04,0,0,0-2.012.76,2.36,2.36,0,0,0-.37-.073l-1.565-8.2a2.374,2.374,0,0,0-1.607-1.816,23.032,23.032,0,0,0,2.88-3.773,34.475,34.475,0,0,0,4.764-17.681,2.386,2.386,0,0,0-.053-.5l.16-.046.477-.838a14.013,14.013,0,0,0,1.141-10.276c-1.109-3.519-3.81-6.318-8.029-8.319-11.716-5.555-23.807-1.186-28.031,4.1-3.441,4.309-1.961,10.62-1.166,13.133a12.532,12.532,0,0,1,.4,1.559l.1.577a11.846,11.846,0,0,1,.165,1.728,34.122,34.122,0,0,0,5.006,16.973,22.956,22.956,0,0,0,2.365,3.086,2.363,2.363,0,0,0-.267.779l-1.466,9.507a2.362,2.362,0,0,0-1.263.267,2.361,2.361,0,0,0-1.089-.266,18.734,18.734,0,0,0-18.723,18.7v24.769h31.417a2.375,2.375,0,1,0,0-4.75H89.406V334.424a13.978,13.978,0,0,1,13.973-13.952,2.367,2.367,0,0,0,.848-.159l4.6,6.595a11.092,11.092,0,0,0,18.247-.08l4.189-6.116a3.035,3.035,0,0,0,1.571.438,13.275,13.275,0,0,1,8.893,3.4c.23.207.454.421.663.637l.033.03a27.97,27.97,0,0,0-13.8,24.1v37.193H226.4a3.955,3.955,0,0,0,3.054-3.8V349.318a27.977,27.977,0,0,0-14.41-24.448,2.436,2.436,0,0,0,.18-.167,13.86,13.86,0,0,1,10.01-4.232,2.367,2.367,0,0,0,.855-.161l4.605,6.6a11.092,11.092,0,0,0,18.247-.08l4.578-6.683a2.363,2.363,0,0,0,1.186.319,13.979,13.979,0,0,1,13.963,13.963l0,20.017H242.007a2.375,2.375,0,1,0,0,4.75h29.031a2.376,2.376,0,0,0,2.325-1.888l0-.009C273.374,357.248,273.38,357.2,273.387,357.148Zm-112.081-76c-1.265-10.328,8.965-13.355,13.421-14.178a62.539,62.539,0,0,0,15.469-5.434c2.333,1.088,7.456,4.068,7.456,9.249l.031,3.635c0,17.923-8.77,34.243-18.4,34.243C171.1,308.659,163.2,296.574,161.306,281.145Zm-56.467,4.081a16.568,16.568,0,0,0-.238-2.42l-.1-.578a17.18,17.18,0,0,0-.541-2.15c-.441-1.394-1.72-6.144.349-8.735,1.868-2.339,6.931-4.871,13-4.871a21.574,21.574,0,0,1,9.284,2.1c2.959,1.4,4.817,3.225,5.521,5.416a8.8,8.8,0,0,1-.358,5.713,20.5,20.5,0,0,1-14.252-.9,15.094,15.094,0,0,0-5.6-1.327,2.375,2.375,0,1,0,.085,4.75,11.249,11.249,0,0,1,3.84,1.023,24.719,24.719,0,0,0,14.346,1.645c-.223,10.917-6.162,20.706-12.67,20.706C111.1,305.6,105.181,296.078,104.84,285.227Zm18.319,38.917a6.342,6.342,0,0,1-10.433.045l-3.657-5.24a2.369,2.369,0,0,0,1.238-1.736l1.3-8.444a12.06,12.06,0,0,0,5.892,1.577,12.282,12.282,0,0,0,6.706-2.061c.006.044.01.087.018.131l1.711,8.965a2.365,2.365,0,0,0,.877,1.429Zm100.185,25.175V380.4H134.735V349.318a21.874,21.874,0,0,1,21.849-21.849H201.5A21.874,21.874,0,0,1,223.344,349.318Zm3.955-64.43c8.511,1.452,13.577-1.24,17.079-3.1a12.486,12.486,0,0,1,2.934-1.3,2.375,2.375,0,0,0-.839-4.676,15.148,15.148,0,0,0-4.325,1.784c-3.586,1.906-8.016,4.26-16.433,2.1a8.8,8.8,0,0,1-.368-5.674c.7-2.208,2.557-4.042,5.533-5.454,9.692-4.6,19.51-.7,22.284,2.775,2.069,2.592.79,7.341.349,8.736a17.218,17.218,0,0,0-.541,2.151l-.1.576a16.5,16.5,0,0,0-.238,2.421c-.341,10.851-6.257,20.37-12.661,20.37C233.46,305.6,227.521,295.806,227.3,284.888Zm17.72,39.255a6.342,6.342,0,0,1-10.433.046l-3.657-5.24a2.369,2.369,0,0,0,1.239-1.736l1.352-8.764a11.867,11.867,0,0,0,12.6.17l1.672,8.763a2.365,2.365,0,0,0,.877,1.429Z" transform="translate(0 -68.871)" fill="#ffa25f"/>
  </g>
</svg>
