<svg id="Group_494" data-name="Group 494" xmlns="http://www.w3.org/2000/svg" xmlns:xlink="http://www.w3.org/1999/xlink" width="66.236" height="124.265" viewBox="0 0 66.236 124.265">
  <defs>
    <linearGradient id="linear-gradient" x1="0.5" y1="-0.121" x2="0.5" y2="1.256" gradientUnits="objectBoundingBox">
      <stop offset="0" stop-color="#3097cf"/>
      <stop offset="1" stop-color="#1d295f"/>
    </linearGradient>
    <linearGradient id="linear-gradient-2" x1="0.5" y1="-0.121" x2="0.5" y2="1.255" xlink:href="#linear-gradient"/>
    <linearGradient id="linear-gradient-3" x1="0.5" y1="-0.121" x2="0.5" y2="1.255" xlink:href="#linear-gradient"/>
    <linearGradient id="linear-gradient-4" x1="0.5" y1="-0.121" x2="0.5" y2="1.255" xlink:href="#linear-gradient"/>
    <linearGradient id="linear-gradient-7" x1="0.5" y1="-0.121" x2="0.5" y2="1.255" xlink:href="#linear-gradient"/>
    <linearGradient id="linear-gradient-13" x1="0.5" y1="-0.121" x2="0.5" y2="1.255" xlink:href="#linear-gradient"/>
    <linearGradient id="linear-gradient-14" x1="0.5" y1="-0.121" x2="0.5" y2="1.256" xlink:href="#linear-gradient"/>
    <linearGradient id="linear-gradient-15" x1="0.5" y1="-0.121" x2="0.5" y2="1.255" xlink:href="#linear-gradient"/>
    <linearGradient id="linear-gradient-16" x1="0.5" y1="-0.121" x2="0.5" y2="1.255" xlink:href="#linear-gradient"/>
    <linearGradient id="linear-gradient-17" x1="0.5" y1="-0.121" x2="0.5" y2="1.255" xlink:href="#linear-gradient"/>
    <linearGradient id="linear-gradient-18" x1="0.5" y1="-0.121" x2="0.5" y2="1.255" xlink:href="#linear-gradient"/>
    <linearGradient id="linear-gradient-19" x1="0.5" y1="-0.121" x2="0.5" y2="1.256" xlink:href="#linear-gradient"/>
    <linearGradient id="linear-gradient-20" x1="0.5" y1="-0.121" x2="0.5" y2="1.255" xlink:href="#linear-gradient"/>
    <linearGradient id="linear-gradient-21" x1="0.5" y1="-0.121" x2="0.5" y2="1.255" xlink:href="#linear-gradient"/>
    <linearGradient id="linear-gradient-22" x1="0.5" y1="-0.121" x2="0.5" y2="1.255" xlink:href="#linear-gradient"/>
    <linearGradient id="linear-gradient-23" x1="0.5" y1="-0.121" x2="0.5" y2="1.256" xlink:href="#linear-gradient"/>
    <linearGradient id="linear-gradient-25" x1="0.5" y1="-0.121" x2="0.5" y2="1.255" xlink:href="#linear-gradient"/>
    <linearGradient id="linear-gradient-26" x1="0.5" y1="-0.121" x2="0.5" y2="1.255" xlink:href="#linear-gradient"/>
    <linearGradient id="linear-gradient-27" x1="0.5" y1="-0.121" x2="0.5" y2="1.256" xlink:href="#linear-gradient"/>
    <linearGradient id="linear-gradient-29" x1="0.5" y1="-0.121" x2="0.5" y2="1.255" xlink:href="#linear-gradient"/>
    <linearGradient id="linear-gradient-33" x1="0.5" y1="-0.121" x2="0.5" y2="1.255" xlink:href="#linear-gradient"/>
    <linearGradient id="linear-gradient-40" x1="0.5" y1="-0.121" x2="0.5" y2="1.256" xlink:href="#linear-gradient"/>
    <linearGradient id="linear-gradient-41" x1="0.5" y1="-0.121" x2="0.5" y2="1.255" xlink:href="#linear-gradient"/>
    <linearGradient id="linear-gradient-44" x1="0.5" y1="-0.121" x2="0.5" y2="1.255" xlink:href="#linear-gradient"/>
    <linearGradient id="linear-gradient-52" x1="0.5" y1="-0.12" x2="0.5" y2="1.255" xlink:href="#linear-gradient"/>
    <linearGradient id="linear-gradient-53" x1="0.5" y1="-0.121" x2="0.5" y2="1.255" xlink:href="#linear-gradient"/>
    <linearGradient id="linear-gradient-57" x1="0.5" y1="-0.121" x2="0.5" y2="1.255" xlink:href="#linear-gradient"/>
    <linearGradient id="linear-gradient-63" x1="0.5" y1="-0.121" x2="0.5" y2="1.256" xlink:href="#linear-gradient"/>
    <linearGradient id="linear-gradient-65" x1="0.5" y1="-0.121" x2="0.5" y2="1.255" xlink:href="#linear-gradient"/>
    <linearGradient id="linear-gradient-66" x1="0.5" y1="-0.121" x2="0.5" y2="1.255" xlink:href="#linear-gradient"/>
    <linearGradient id="linear-gradient-70" x1="0.5" y1="-0.121" x2="0.5" y2="1.255" xlink:href="#linear-gradient"/>
    <linearGradient id="linear-gradient-71" x1="0.5" y1="-0.121" x2="0.5" y2="1.256" xlink:href="#linear-gradient"/>
    <linearGradient id="linear-gradient-79" x1="0.5" y1="-0.121" x2="0.5" y2="1.255" xlink:href="#linear-gradient"/>
    <linearGradient id="linear-gradient-81" x1="0.5" y1="-0.121" x2="0.5" y2="1.255" xlink:href="#linear-gradient"/>
    <linearGradient id="linear-gradient-82" x1="0.5" y1="-0.121" x2="0.5" y2="1.255" xlink:href="#linear-gradient"/>
    <linearGradient id="linear-gradient-83" x1="0.5" y1="-0.121" x2="0.5" y2="1.255" xlink:href="#linear-gradient"/>
    <linearGradient id="linear-gradient-87" x1="0.5" y1="-0.12" x2="0.5" y2="1.255" xlink:href="#linear-gradient"/>
    <linearGradient id="linear-gradient-88" x1="0.5" y1="-0.12" x2="0.5" y2="1.256" xlink:href="#linear-gradient"/>
    <linearGradient id="linear-gradient-89" x1="0.5" y1="-0.121" x2="0.5" y2="1.256" xlink:href="#linear-gradient"/>
    <linearGradient id="linear-gradient-90" x1="0.5" y1="-0.121" x2="0.5" y2="1.255" xlink:href="#linear-gradient"/>
  </defs>
  <g id="Group_492" data-name="Group 492" transform="translate(0 105.38)">
    <path id="Path_1145" data-name="Path 1145" d="M522.489,111.785a9.45,9.45,0,1,1,9.831-9.445A9.655,9.655,0,0,1,522.489,111.785Z" transform="translate(-512.654 -92.899)" fill="#37a1d5"/>
    <path id="Path_1146" data-name="Path 1146" d="M530.615,101.591a8.856,8.856,0,1,1-8.843-8.409A8.635,8.635,0,0,1,530.615,101.591Z" transform="translate(-511.937 -92.15)" fill="#37a1d5"/>
  </g>
  <g id="Group_493" data-name="Group 493" transform="translate(1.815 25.197)">
    <path id="Path_1147" data-name="Path 1147" d="M530.229,101.436a8.539,8.539,0,1,1-8.54-8.537A8.537,8.537,0,0,1,530.229,101.436Z" transform="translate(-513.152 -12.716)" fill="url(#linear-gradient)"/>
    <path id="Path_1148" data-name="Path 1148" d="M530.245,101.176a8.5,8.5,0,1,1-8.5-8.5A8.5,8.5,0,0,1,530.245,101.176Z" transform="translate(-512.898 -13.298)" fill="url(#linear-gradient-2)"/>
    <path id="Path_1149" data-name="Path 1149" d="M530.259,100.916a8.457,8.457,0,1,1-8.457-8.457A8.458,8.458,0,0,1,530.259,100.916Z" transform="translate(-512.641 -13.88)" fill="url(#linear-gradient-3)"/>
    <path id="Path_1150" data-name="Path 1150" d="M530.274,100.656a8.417,8.417,0,1,1-8.417-8.417A8.418,8.418,0,0,1,530.274,100.656Z" transform="translate(-512.387 -14.462)" fill="url(#linear-gradient-4)"/>
    <path id="Path_1151" data-name="Path 1151" d="M530.29,100.4a8.377,8.377,0,1,1-8.377-8.377A8.377,8.377,0,0,1,530.29,100.4Z" transform="translate(-512.134 -15.044)" fill="url(#linear-gradient-4)"/>
    <path id="Path_1152" data-name="Path 1152" d="M530.3,100.135a8.335,8.335,0,1,1-8.336-8.336A8.334,8.334,0,0,1,530.3,100.135Z" transform="translate(-511.877 -15.625)" fill="url(#linear-gradient-2)"/>
    <path id="Path_1153" data-name="Path 1153" d="M530.319,99.875a8.295,8.295,0,1,1-8.3-8.3A8.3,8.3,0,0,1,530.319,99.875Z" transform="translate(-511.623 -16.207)" fill="url(#linear-gradient-7)"/>
    <path id="Path_1154" data-name="Path 1154" d="M530.335,99.615a8.254,8.254,0,1,1-8.253-8.256A8.254,8.254,0,0,1,530.335,99.615Z" transform="translate(-511.369 -16.789)" fill="url(#linear-gradient-7)"/>
    <path id="Path_1155" data-name="Path 1155" d="M530.348,99.355a8.213,8.213,0,1,1-8.213-8.216A8.214,8.214,0,0,1,530.348,99.355Z" transform="translate(-511.113 -17.371)" fill="url(#linear-gradient-4)"/>
    <path id="Path_1156" data-name="Path 1156" d="M530.364,99.091a8.172,8.172,0,1,1-8.172-8.172A8.171,8.171,0,0,1,530.364,99.091Z" transform="translate(-510.859 -17.953)" fill="url(#linear-gradient-2)"/>
    <path id="Path_1157" data-name="Path 1157" d="M530.38,98.831a8.132,8.132,0,1,1-8.133-8.132A8.133,8.133,0,0,1,530.38,98.831Z" transform="translate(-510.605 -18.535)" fill="url(#linear-gradient-7)"/>
    <path id="Path_1158" data-name="Path 1158" d="M530.393,98.571a8.09,8.09,0,1,1-8.092-8.092A8.093,8.093,0,0,1,530.393,98.571Z" transform="translate(-510.348 -19.117)" fill="url(#linear-gradient-7)"/>
    <path id="Path_1159" data-name="Path 1159" d="M530.409,98.311a8.05,8.05,0,1,1-8.048-8.052A8.051,8.051,0,0,1,530.409,98.311Z" transform="translate(-510.094 -19.699)" fill="url(#linear-gradient-13)"/>
    <path id="Path_1160" data-name="Path 1160" d="M530.424,98.051a8.01,8.01,0,1,1-8.008-8.012A8.008,8.008,0,0,1,530.424,98.051Z" transform="translate(-509.84 -20.281)" fill="url(#linear-gradient-14)"/>
    <path id="Path_1161" data-name="Path 1161" d="M530.44,97.791a7.97,7.97,0,1,1-7.968-7.972A7.97,7.97,0,0,1,530.44,97.791Z" transform="translate(-509.586 -20.863)" fill="url(#linear-gradient-15)"/>
    <path id="Path_1162" data-name="Path 1162" d="M530.453,97.531a7.928,7.928,0,1,1-7.928-7.932A7.929,7.929,0,0,1,530.453,97.531Z" transform="translate(-509.33 -21.445)" fill="url(#linear-gradient-16)"/>
    <path id="Path_1163" data-name="Path 1163" d="M530.469,97.268a7.888,7.888,0,1,1-7.888-7.888A7.887,7.887,0,0,1,530.469,97.268Z" transform="translate(-509.076 -22.024)" fill="url(#linear-gradient-17)"/>
    <path id="Path_1164" data-name="Path 1164" d="M530.489,97.008a7.85,7.85,0,1,1-7.848-7.848A7.848,7.848,0,0,1,530.489,97.008Z" transform="translate(-508.822 -22.606)" fill="url(#linear-gradient-18)"/>
    <path id="Path_1165" data-name="Path 1165" d="M530.5,96.748a7.808,7.808,0,1,1-7.808-7.808A7.807,7.807,0,0,1,530.5,96.748Z" transform="translate(-508.565 -23.188)" fill="url(#linear-gradient-19)"/>
    <path id="Path_1166" data-name="Path 1166" d="M530.518,96.484a7.768,7.768,0,1,1-7.768-7.764A7.768,7.768,0,0,1,530.518,96.484Z" transform="translate(-508.311 -23.77)" fill="url(#linear-gradient-20)"/>
    <path id="Path_1167" data-name="Path 1167" d="M530.533,96.224a7.728,7.728,0,1,1-7.728-7.724A7.727,7.727,0,0,1,530.533,96.224Z" transform="translate(-508.057 -24.352)" fill="url(#linear-gradient-21)"/>
    <path id="Path_1168" data-name="Path 1168" d="M530.547,95.964a7.686,7.686,0,1,1-7.688-7.684A7.687,7.687,0,0,1,530.547,95.964Z" transform="translate(-507.801 -24.934)" fill="url(#linear-gradient-22)"/>
    <path id="Path_1169" data-name="Path 1169" d="M530.562,95.7a7.646,7.646,0,1,1-7.648-7.644A7.645,7.645,0,0,1,530.562,95.7Z" transform="translate(-507.547 -25.516)" fill="url(#linear-gradient-23)"/>
    <path id="Path_1170" data-name="Path 1170" d="M530.578,95.444a7.606,7.606,0,1,1-7.6-7.6A7.6,7.6,0,0,1,530.578,95.444Z" transform="translate(-507.293 -26.098)" fill="url(#linear-gradient)"/>
    <path id="Path_1171" data-name="Path 1171" d="M530.591,95.184a7.564,7.564,0,1,1-7.564-7.564A7.564,7.564,0,0,1,530.591,95.184Z" transform="translate(-507.036 -26.68)" fill="url(#linear-gradient-25)"/>
    <path id="Path_1172" data-name="Path 1172" d="M530.607,94.924a7.524,7.524,0,1,1-7.523-7.524A7.523,7.523,0,0,1,530.607,94.924Z" transform="translate(-506.782 -27.262)" fill="url(#linear-gradient-26)"/>
    <path id="Path_1173" data-name="Path 1173" d="M530.623,94.664a7.484,7.484,0,1,1-7.484-7.484A7.482,7.482,0,0,1,530.623,94.664Z" transform="translate(-506.528 -27.843)" fill="url(#linear-gradient-27)"/>
    <path id="Path_1174" data-name="Path 1174" d="M530.636,94.4a7.442,7.442,0,1,1-7.443-7.443A7.442,7.442,0,0,1,530.636,94.4Z" transform="translate(-506.272 -28.425)" fill="url(#linear-gradient)"/>
    <path id="Path_1175" data-name="Path 1175" d="M530.652,94.143a7.4,7.4,0,1,1-7.4-7.4A7.4,7.4,0,0,1,530.652,94.143Z" transform="translate(-506.018 -29.007)" fill="url(#linear-gradient-29)"/>
    <path id="Path_1176" data-name="Path 1176" d="M530.668,93.88a7.361,7.361,0,1,1-7.36-7.36A7.361,7.361,0,0,1,530.668,93.88Z" transform="translate(-505.764 -29.589)" fill="url(#linear-gradient-29)"/>
    <path id="Path_1177" data-name="Path 1177" d="M530.681,93.619a7.319,7.319,0,1,1-7.319-7.319A7.322,7.322,0,0,1,530.681,93.619Z" transform="translate(-505.507 -30.171)" fill="url(#linear-gradient-26)"/>
    <path id="Path_1178" data-name="Path 1178" d="M530.7,93.359a7.279,7.279,0,1,1-7.279-7.279A7.279,7.279,0,0,1,530.7,93.359Z" transform="translate(-505.253 -30.753)" fill="url(#linear-gradient)"/>
    <path id="Path_1179" data-name="Path 1179" d="M530.713,93.1a7.239,7.239,0,1,1-7.239-7.239A7.238,7.238,0,0,1,530.713,93.1Z" transform="translate(-504.999 -31.335)" fill="url(#linear-gradient-33)"/>
    <path id="Path_1180" data-name="Path 1180" d="M530.728,92.839a7.2,7.2,0,1,1-7.2-7.2A7.2,7.2,0,0,1,530.728,92.839Z" transform="translate(-504.745 -31.917)" fill="url(#linear-gradient-33)"/>
    <path id="Path_1181" data-name="Path 1181" d="M530.742,92.579a7.157,7.157,0,1,1-7.156-7.159A7.159,7.159,0,0,1,530.742,92.579Z" transform="translate(-504.489 -32.499)" fill="url(#linear-gradient-4)"/>
    <path id="Path_1182" data-name="Path 1182" d="M530.761,92.319a7.119,7.119,0,1,1-7.119-7.119A7.119,7.119,0,0,1,530.761,92.319Z" transform="translate(-504.235 -33.081)" fill="url(#linear-gradient)"/>
    <path id="Path_1183" data-name="Path 1183" d="M530.777,92.059A7.079,7.079,0,1,1,523.7,84.98,7.078,7.078,0,0,1,530.777,92.059Z" transform="translate(-503.981 -33.663)" fill="url(#linear-gradient-2)"/>
    <path id="Path_1184" data-name="Path 1184" d="M530.79,91.8a7.037,7.037,0,1,1-7.039-7.039A7.038,7.038,0,0,1,530.79,91.8Z" transform="translate(-503.724 -34.245)" fill="url(#linear-gradient-3)"/>
    <path id="Path_1185" data-name="Path 1185" d="M530.806,91.535a7,7,0,1,1-7-7A7,7,0,0,1,530.806,91.535Z" transform="translate(-503.47 -34.827)" fill="url(#linear-gradient-4)"/>
    <path id="Path_1186" data-name="Path 1186" d="M530.822,91.275a6.957,6.957,0,1,1-6.955-6.955A6.956,6.956,0,0,1,530.822,91.275Z" transform="translate(-503.217 -35.409)" fill="url(#linear-gradient-40)"/>
    <path id="Path_1187" data-name="Path 1187" d="M530.835,91.015A6.915,6.915,0,1,1,523.92,84.1,6.916,6.916,0,0,1,530.835,91.015Z" transform="translate(-502.96 -35.991)" fill="url(#linear-gradient-41)"/>
    <path id="Path_1188" data-name="Path 1188" d="M530.85,90.755a6.875,6.875,0,1,1-6.875-6.875A6.875,6.875,0,0,1,530.85,90.755Z" transform="translate(-502.706 -36.573)" fill="url(#linear-gradient-7)"/>
    <path id="Path_1189" data-name="Path 1189" d="M530.866,90.495a6.835,6.835,0,1,1-6.835-6.835A6.835,6.835,0,0,1,530.866,90.495Z" transform="translate(-502.452 -37.154)" fill="url(#linear-gradient-4)"/>
    <path id="Path_1190" data-name="Path 1190" d="M530.879,90.235a6.793,6.793,0,1,1-6.795-6.795A6.794,6.794,0,0,1,530.879,90.235Z" transform="translate(-502.196 -37.736)" fill="url(#linear-gradient-44)"/>
    <path id="Path_1191" data-name="Path 1191" d="M530.9,89.974a6.753,6.753,0,1,1-6.751-6.754A6.75,6.75,0,0,1,530.9,89.974Z" transform="translate(-501.941 -38.318)" fill="url(#linear-gradient-2)"/>
    <path id="Path_1192" data-name="Path 1192" d="M530.911,89.714A6.713,6.713,0,1,1,524.2,83,6.71,6.71,0,0,1,530.911,89.714Z" transform="translate(-501.688 -38.9)" fill="url(#linear-gradient-7)"/>
    <path id="Path_1193" data-name="Path 1193" d="M530.924,89.454a6.671,6.671,0,1,1-6.67-6.674A6.671,6.671,0,0,1,530.924,89.454Z" transform="translate(-501.431 -39.482)" fill="url(#linear-gradient-13)"/>
    <path id="Path_1194" data-name="Path 1194" d="M530.94,89.194a6.631,6.631,0,1,1-6.631-6.634A6.631,6.631,0,0,1,530.94,89.194Z" transform="translate(-501.177 -40.064)" fill="url(#linear-gradient-13)"/>
    <path id="Path_1195" data-name="Path 1195" d="M530.956,88.93a6.59,6.59,0,1,1-6.59-6.59A6.588,6.588,0,0,1,530.956,88.93Z" transform="translate(-500.923 -40.646)" fill="url(#linear-gradient-15)"/>
    <path id="Path_1196" data-name="Path 1196" d="M530.969,88.67a6.549,6.549,0,1,1-6.55-6.55A6.548,6.548,0,0,1,530.969,88.67Z" transform="translate(-500.667 -41.228)" fill="url(#linear-gradient-16)"/>
    <path id="Path_1197" data-name="Path 1197" d="M530.985,88.41a6.508,6.508,0,1,1-6.506-6.51A6.509,6.509,0,0,1,530.985,88.41Z" transform="translate(-500.413 -41.81)" fill="url(#linear-gradient-16)"/>
    <path id="Path_1198" data-name="Path 1198" d="M531,88.15a6.468,6.468,0,1,1-6.466-6.47A6.468,6.468,0,0,1,531,88.15Z" transform="translate(-500.159 -42.392)" fill="url(#linear-gradient-52)"/>
    <path id="Path_1199" data-name="Path 1199" d="M531.017,87.887a6.428,6.428,0,1,1-6.426-6.426A6.428,6.428,0,0,1,531.017,87.887Z" transform="translate(-499.905 -42.971)" fill="url(#linear-gradient-53)"/>
    <path id="Path_1200" data-name="Path 1200" d="M531.033,87.627a6.388,6.388,0,1,1-6.39-6.386A6.388,6.388,0,0,1,531.033,87.627Z" transform="translate(-499.648 -43.553)" fill="url(#linear-gradient-19)"/>
    <path id="Path_1201" data-name="Path 1201" d="M531.049,87.367a6.348,6.348,0,1,1-6.35-6.346A6.349,6.349,0,0,1,531.049,87.367Z" transform="translate(-499.394 -44.135)" fill="url(#linear-gradient-20)"/>
    <path id="Path_1202" data-name="Path 1202" d="M531.065,87.107a6.308,6.308,0,1,1-6.306-6.306A6.308,6.308,0,0,1,531.065,87.107Z" transform="translate(-499.141 -44.717)" fill="url(#linear-gradient-21)"/>
    <path id="Path_1203" data-name="Path 1203" d="M531.078,86.847a6.266,6.266,0,1,1-6.266-6.266A6.268,6.268,0,0,1,531.078,86.847Z" transform="translate(-498.884 -45.299)" fill="url(#linear-gradient-57)"/>
    <path id="Path_1204" data-name="Path 1204" d="M531.094,86.587a6.226,6.226,0,1,1-6.226-6.226A6.224,6.224,0,0,1,531.094,86.587Z" transform="translate(-498.63 -45.881)" fill="url(#linear-gradient-23)"/>
    <path id="Path_1205" data-name="Path 1205" d="M531.11,86.323a6.186,6.186,0,1,1-6.186-6.182A6.187,6.187,0,0,1,531.11,86.323Z" transform="translate(-498.376 -46.463)" fill="url(#linear-gradient-20)"/>
    <path id="Path_1206" data-name="Path 1206" d="M531.123,86.063a6.144,6.144,0,1,1-6.146-6.142A6.146,6.146,0,0,1,531.123,86.063Z" transform="translate(-498.119 -47.045)" fill="url(#linear-gradient-25)"/>
    <path id="Path_1207" data-name="Path 1207" d="M531.139,85.8a6.1,6.1,0,1,1-6.106-6.1A6.106,6.106,0,0,1,531.139,85.8Z" transform="translate(-497.865 -47.627)" fill="url(#linear-gradient-26)"/>
    <path id="Path_1208" data-name="Path 1208" d="M531.154,85.543a6.064,6.064,0,1,1-6.062-6.062A6.062,6.062,0,0,1,531.154,85.543Z" transform="translate(-497.612 -48.209)" fill="url(#linear-gradient-23)"/>
    <path id="Path_1209" data-name="Path 1209" d="M531.167,85.283a6.022,6.022,0,1,1-6.022-6.022A6.024,6.024,0,0,1,531.167,85.283Z" transform="translate(-497.355 -48.791)" fill="url(#linear-gradient-63)"/>
    <path id="Path_1210" data-name="Path 1210" d="M531.184,85.023a5.982,5.982,0,1,1-5.982-5.982A5.983,5.983,0,0,1,531.184,85.023Z" transform="translate(-497.101 -49.373)" fill="url(#linear-gradient-29)"/>
    <path id="Path_1211" data-name="Path 1211" d="M531.2,84.763a5.942,5.942,0,1,1-5.942-5.942A5.943,5.943,0,0,1,531.2,84.763Z" transform="translate(-496.847 -49.954)" fill="url(#linear-gradient-65)"/>
    <path id="Path_1212" data-name="Path 1212" d="M531.212,84.5a5.9,5.9,0,1,1-5.9-5.9A5.9,5.9,0,0,1,531.212,84.5Z" transform="translate(-496.59 -50.536)" fill="url(#linear-gradient-66)"/>
    <path id="Path_1213" data-name="Path 1213" d="M531.228,84.242a5.86,5.86,0,1,1-5.858-5.861A5.86,5.86,0,0,1,531.228,84.242Z" transform="translate(-496.337 -51.118)" fill="url(#linear-gradient)"/>
    <path id="Path_1214" data-name="Path 1214" d="M531.244,83.982a5.82,5.82,0,1,1-5.818-5.821A5.82,5.82,0,0,1,531.244,83.982Z" transform="translate(-496.083 -51.7)" fill="url(#linear-gradient-33)"/>
    <path id="Path_1215" data-name="Path 1215" d="M531.26,83.719a5.779,5.779,0,1,1-5.778-5.778A5.778,5.778,0,0,1,531.26,83.719Z" transform="translate(-495.829 -52.282)" fill="url(#linear-gradient-65)"/>
    <path id="Path_1216" data-name="Path 1216" d="M531.273,83.458a5.738,5.738,0,1,1-5.737-5.737A5.737,5.737,0,0,1,531.273,83.458Z" transform="translate(-495.572 -52.864)" fill="url(#linear-gradient-70)"/>
    <path id="Path_1217" data-name="Path 1217" d="M531.289,83.2a5.7,5.7,0,1,1-5.7-5.7A5.694,5.694,0,0,1,531.289,83.2Z" transform="translate(-495.318 -53.446)" fill="url(#linear-gradient-71)"/>
    <path id="Path_1218" data-name="Path 1218" d="M531.308,82.938a5.659,5.659,0,1,1-5.657-5.657A5.658,5.658,0,0,1,531.308,82.938Z" transform="translate(-495.064 -54.028)" fill="url(#linear-gradient-2)"/>
    <path id="Path_1219" data-name="Path 1219" d="M531.321,82.678a5.617,5.617,0,1,1-5.617-5.617A5.618,5.618,0,0,1,531.321,82.678Z" transform="translate(-494.808 -54.61)" fill="url(#linear-gradient-3)"/>
    <path id="Path_1220" data-name="Path 1220" d="M531.337,82.418a5.577,5.577,0,1,1-5.577-5.577A5.577,5.577,0,0,1,531.337,82.418Z" transform="translate(-494.554 -55.192)" fill="url(#linear-gradient-4)"/>
    <path id="Path_1221" data-name="Path 1221" d="M531.353,82.158a5.537,5.537,0,1,1-5.537-5.537A5.534,5.534,0,0,1,531.353,82.158Z" transform="translate(-494.3 -55.774)" fill="url(#linear-gradient-40)"/>
    <path id="Path_1222" data-name="Path 1222" d="M531.366,81.9a5.5,5.5,0,1,1-5.5-5.5A5.5,5.5,0,0,1,531.366,81.9Z" transform="translate(-494.043 -56.356)" fill="url(#linear-gradient-41)"/>
    <path id="Path_1223" data-name="Path 1223" d="M531.382,81.638a5.455,5.455,0,1,1-5.457-5.457A5.455,5.455,0,0,1,531.382,81.638Z" transform="translate(-493.789 -56.938)" fill="url(#linear-gradient-7)"/>
    <path id="Path_1224" data-name="Path 1224" d="M531.4,81.378a5.415,5.415,0,1,1-5.413-5.417A5.414,5.414,0,0,1,531.4,81.378Z" transform="translate(-493.535 -57.52)" fill="url(#linear-gradient-4)"/>
    <path id="Path_1225" data-name="Path 1225" d="M531.411,81.114a5.373,5.373,0,1,1-5.373-5.373A5.374,5.374,0,0,1,531.411,81.114Z" transform="translate(-493.279 -58.102)" fill="url(#linear-gradient-79)"/>
    <path id="Path_1226" data-name="Path 1226" d="M531.427,80.854a5.333,5.333,0,1,1-5.333-5.333A5.333,5.333,0,0,1,531.427,80.854Z" transform="translate(-493.025 -58.683)" fill="url(#linear-gradient-2)"/>
    <path id="Path_1227" data-name="Path 1227" d="M531.442,80.594A5.293,5.293,0,1,1,526.15,75.3,5.292,5.292,0,0,1,531.442,80.594Z" transform="translate(-492.771 -59.265)" fill="url(#linear-gradient-81)"/>
    <path id="Path_1228" data-name="Path 1228" d="M531.456,80.334a5.251,5.251,0,1,1-5.253-5.253A5.252,5.252,0,0,1,531.456,80.334Z" transform="translate(-492.514 -59.847)" fill="url(#linear-gradient-82)"/>
    <path id="Path_1229" data-name="Path 1229" d="M531.472,80.074a5.211,5.211,0,1,1-5.209-5.213A5.211,5.211,0,0,1,531.472,80.074Z" transform="translate(-492.26 -60.429)" fill="url(#linear-gradient-83)"/>
    <path id="Path_1230" data-name="Path 1230" d="M531.487,79.813a5.171,5.171,0,1,1-5.169-5.172A5.169,5.169,0,0,1,531.487,79.813Z" transform="translate(-492.007 -61.011)" fill="url(#linear-gradient-15)"/>
    <path id="Path_1231" data-name="Path 1231" d="M531.5,79.553a5.129,5.129,0,1,1-5.129-5.132A5.129,5.129,0,0,1,531.5,79.553Z" transform="translate(-491.75 -61.593)" fill="url(#linear-gradient-16)"/>
    <path id="Path_1232" data-name="Path 1232" d="M531.516,79.293a5.089,5.089,0,1,1-5.089-5.092A5.089,5.089,0,0,1,531.516,79.293Z" transform="translate(-491.496 -62.175)" fill="url(#linear-gradient-13)"/>
    <path id="Path_1233" data-name="Path 1233" d="M531.532,79.033a5.049,5.049,0,1,1-5.049-5.052A5.048,5.048,0,0,1,531.532,79.033Z" transform="translate(-491.242 -62.757)" fill="url(#linear-gradient-87)"/>
    <path id="Path_1234" data-name="Path 1234" d="M531.548,78.769a5.008,5.008,0,1,1-5.008-5.008A5.008,5.008,0,0,1,531.548,78.769Z" transform="translate(-490.988 -63.339)" fill="url(#linear-gradient-88)"/>
    <path id="Path_1235" data-name="Path 1235" d="M531.565,78.507a4.968,4.968,0,1,1-4.968-4.965A4.97,4.97,0,0,1,531.565,78.507Z" transform="translate(-490.731 -63.918)" fill="url(#linear-gradient-89)"/>
    <path id="Path_1236" data-name="Path 1236" d="M531.58,78.247a4.928,4.928,0,1,1-4.928-4.925A4.929,4.929,0,0,1,531.58,78.247Z" transform="translate(-490.477 -64.5)" fill="url(#linear-gradient-90)"/>
    <path id="Path_1237" data-name="Path 1237" d="M531.6,77.987a4.888,4.888,0,1,1-4.888-4.885A4.889,4.889,0,0,1,531.6,77.987Z" transform="translate(-490.224 -65.082)" fill="url(#linear-gradient-18)"/>
    <circle id="Ellipse_5" data-name="Ellipse 5" cx="4.846" cy="4.846" r="4.846" transform="translate(31.118 15.902) rotate(-79.07)" fill="url(#linear-gradient-29)"/>
    <circle id="Ellipse_6" data-name="Ellipse 6" cx="4.806" cy="4.806" r="4.806" transform="translate(31.476 15.027) rotate(-79.066)" fill="url(#linear-gradient-29)"/>
    <circle id="Ellipse_7" data-name="Ellipse 7" cx="4.765" cy="4.765" r="4.765" transform="translate(31.834 14.152) rotate(-79.062)" fill="url(#linear-gradient-29)"/>
    <circle id="Ellipse_8" data-name="Ellipse 8" cx="4.724" cy="4.724" r="4.724" transform="matrix(0.19, -0.982, 0.982, 0.19, 32.191, 13.277)" fill="url(#linear-gradient-29)"/>
    <circle id="Ellipse_9" data-name="Ellipse 9" cx="4.684" cy="4.684" r="4.684" transform="translate(33.353 4.009)" fill="url(#linear-gradient-29)"/>
    <circle id="Ellipse_10" data-name="Ellipse 10" cx="4.643" cy="4.643" r="4.643" transform="translate(33.704 3.207)" fill="url(#linear-gradient-29)"/>
    <circle id="Ellipse_11" data-name="Ellipse 11" cx="4.5" cy="4.5" r="4.5" transform="translate(34.42 2.803)" fill="url(#linear-gradient-29)"/>
    <circle id="Ellipse_12" data-name="Ellipse 12" cx="4.562" cy="4.562" r="4.562" transform="translate(34.407 1.604)" fill="url(#linear-gradient-29)"/>
    <circle id="Ellipse_13" data-name="Ellipse 13" cx="4.522" cy="4.522" r="4.522" transform="translate(34.758 0.802)" fill="url(#linear-gradient-29)"/>
    <circle id="Ellipse_14" data-name="Ellipse 14" cx="4.481" cy="4.481" r="4.481" transform="translate(35.109)" fill="url(#linear-gradient-29)"/>
  </g>
  <circle id="Ellipse_15" data-name="Ellipse 15" cx="22" cy="22" r="22" transform="translate(22.236)" fill="#37a1d5"/>
</svg>
