<svg xmlns="http://www.w3.org/2000/svg" width="200.362" height="125.475" viewBox="0 0 200.362 125.475">
  <g id="Group_666" data-name="Group 666" transform="translate(-74.386 -233.422)">
    <g id="Group_662" data-name="Group 662" transform="translate(137.401 267.562)">
      <path id="Path_1531" data-name="Path 1531" d="M362.795,416.127h0a3.266,3.266,0,0,0-4.581-.547l-14.866,11.694a3.262,3.262,0,0,0,0,5.128L358.214,444.1a3.262,3.262,0,0,0,4.034-5.128l-11.607-9.13,11.606-9.13A3.266,3.266,0,0,0,362.795,416.127Z" transform="translate(-342.103 -406.311)" fill="#ffa25f"/>
      <path id="Path_1532" data-name="Path 1532" d="M567.725,443.541h0a3.263,3.263,0,0,0,4.581.548l14.866-11.694a3.262,3.262,0,0,0,0-5.128l-14.866-11.694a3.262,3.262,0,0,0-4.034,5.128l11.607,9.13-11.607,9.13A3.266,3.266,0,0,0,567.725,443.541Z" transform="translate(-514.085 -406.304)" fill="#ffa25f"/>
      <path id="Path_1533" data-name="Path 1533" d="M479.978,378.541a3.267,3.267,0,0,0-3.892,2.476l-9.01,40.529a3.262,3.262,0,0,0,2.476,3.892,3.258,3.258,0,0,0,3.892-2.476l9.01-40.53a3.262,3.262,0,0,0-2.477-3.892Z" transform="translate(-437.6 -378.464)" fill="#ffa25f"/>
    </g>
    <g id="Group_665" data-name="Group 665" transform="translate(74.386 233.422)">
      <g id="Group_663" data-name="Group 663" transform="translate(20.447)">
        <path id="Path_1534" data-name="Path 1534" d="M164.2,343.011h-.019a2.943,2.943,0,0,1-2.923-2.961l.684-106.628,158.805,1.019-.686,93.654a2.942,2.942,0,1,1-5.884-.043l.643-87.764-147.031-.943-.646,100.744A2.942,2.942,0,0,1,164.2,343.011Z" transform="translate(-161.256 -233.422)" fill="#ffa25f"/>
      </g>
      <g id="Group_664" data-name="Group 664" transform="translate(0 103.705)">
        <path id="Path_1535" data-name="Path 1535" d="M247.979,695.777H101.155A27.006,27.006,0,0,1,75.8,677.943l-1.414-3.937h79.772l5.227,4.577H189.75l5.226-4.577h79.772l-1.414,3.937A27.006,27.006,0,0,1,247.979,695.777ZM83.237,679.89a21.121,21.121,0,0,0,17.918,10H247.979a21.12,21.12,0,0,0,17.918-10H197.188l-5.226,4.577h-34.79l-5.226-4.577Z" transform="translate(-74.386 -674.006)" fill="#ffa25f"/>
      </g>
    </g>
  </g>
</svg>
