<svg id="Group_609" data-name="Group 609" xmlns="http://www.w3.org/2000/svg" width="147.94" height="147.941" viewBox="0 0 147.94 147.941">
  <path id="Path_1474" data-name="Path 1474" d="M-4798.343-830.895a2.774,2.774,0,0,0-3.923,0l-2.147,2.147-2.422-2.423a2.158,2.158,0,0,0-3.051,0,2.157,2.157,0,0,0,0,3.051l2.422,2.422-8,8-2.422-2.422a2.157,2.157,0,0,0-3.051,0,2.157,2.157,0,0,0,0,3.051l2.422,2.422-8,8-2.422-2.422a2.158,2.158,0,0,0-3.051,0,2.158,2.158,0,0,0,0,3.051l2.422,2.422-8,8-2.423-2.422a2.158,2.158,0,0,0-3.051,0,2.157,2.157,0,0,0,0,3.051l2.423,2.422-8,8-2.422-2.423a2.158,2.158,0,0,0-3.051,0,2.157,2.157,0,0,0,0,3.051l2.422,2.422-8,8-2.422-2.422a2.157,2.157,0,0,0-3.051,0,2.158,2.158,0,0,0,0,3.051l2.422,2.422-8,8-2.423-2.422a2.158,2.158,0,0,0-3.051,0,2.158,2.158,0,0,0,0,3.052l2.423,2.422-8,8-2.423-2.423a2.158,2.158,0,0,0-3.051,0,2.157,2.157,0,0,0,0,3.051l2.423,2.422-8,8-2.422-2.422a2.158,2.158,0,0,0-3.051,0,2.157,2.157,0,0,0,0,3.051l2.421,2.422-11.655,11.655V-841.166H-4785.3a2.774,2.774,0,0,0,2.774-2.774,2.774,2.774,0,0,0-2.774-2.774h-127.81v134.508l114.766-114.765A2.774,2.774,0,0,0-4798.343-830.895Z" transform="translate(4913.108 846.714)" fill="#1d1d1d"/>
  <path id="Path_1475" data-name="Path 1475" d="M-4806.73-715.08a2.774,2.774,0,0,0,3.923,0l44.081-44.081h-66.828v66.828l13.884-13.884a2.776,2.776,0,0,0,0-3.923,2.775,2.775,0,0,0-3.923,0l-4.414,4.413v-47.886h47.886L-4806.73-719A2.774,2.774,0,0,0-4806.73-715.08Z" transform="translate(4845.378 778.984)" fill="#1d1d1d"/>
  <path id="Path_1476" data-name="Path 1476" d="M-4678.572-717.743a10.156,10.156,0,0,0-14.345,0l-3.744,3.744-83.927,83.927-6.453,25.315a2.774,2.774,0,0,0,2,3.373,2.766,2.766,0,0,0,.687.087,2.776,2.776,0,0,0,2.686-2.09l5.183-20.332,7.363,7.363a2.765,2.765,0,0,0,1.961.813,2.765,2.765,0,0,0,1.961-.813,2.774,2.774,0,0,0,0-3.923l-8.477-8.476a2.6,2.6,0,0,0-.2-.183l81.137-81.138,3.745-3.744a4.6,4.6,0,0,1,6.5,0l7.89,7.89a4.565,4.565,0,0,1,1.346,3.25,4.564,4.564,0,0,1-1.346,3.249l-1.782,1.783-10.151-10.151a2.774,2.774,0,0,0-3.923,0,2.774,2.774,0,0,0,0,3.923l1,1-72.837,72.836a2.774,2.774,0,0,0,0,3.923,2.768,2.768,0,0,0,1.962.812,2.766,2.766,0,0,0,1.961-.812l72.836-72.836,5.233,5.233-80.889,80.889-9.633,2.456a2.774,2.774,0,0,0-2,3.373,2.775,2.775,0,0,0,2.687,2.089,2.771,2.771,0,0,0,.687-.087l11.109-2.831,83.927-83.927,3.745-3.744a10.079,10.079,0,0,0,2.971-7.173,10.079,10.079,0,0,0-2.971-7.173Z" transform="translate(4815.651 749.237)" fill="#1d1d1d"/>
</svg>
