<svg id="Group_605" data-name="Group 605" xmlns="http://www.w3.org/2000/svg" width="151.701" height="159.979" viewBox="0 0 151.701 159.979">
  <path id="Path_1429" data-name="Path 1429" d="M-5791.4-804.484c-3.121-11.319-8.326-20.6-15.467-27.6a3.069,3.069,0,0,0-.738-.61,3.055,3.055,0,0,0-3.935.725c-.009.011-.019.022-.026.033-.047.059-.089.122-.132.185-.019.028-.038.056-.056.084s-.025.036-.037.055l-17.045,28.937-7.47-4.015,1.053-2.2a3.517,3.517,0,0,0,1.077-2.249l24.986-52.19a6.881,6.881,0,0,1,4.1-3.526,6.882,6.882,0,0,1,5.4.5,6.882,6.882,0,0,1,3.393,4.23,6.873,6.873,0,0,1-.68,5.369l-9.1,15.444a2.972,2.972,0,0,0-.21.44l-.449.778a3.056,3.056,0,0,0,1.121,4.175,3.038,3.038,0,0,0,1.524.41,3.054,3.054,0,0,0,2.65-1.53l2.762-4.788h0l6.972-11.837a12.94,12.94,0,0,0,1.292-10.119,12.946,12.946,0,0,0-6.383-7.957,12.944,12.944,0,0,0-10.159-.934,12.947,12.947,0,0,0-7.727,6.66l-10.723,22.4c-13.047-4.651-28.934-4.735-47.284-.242-22.3,5.469-41.555,17.708-54.214,34.465-12.8,16.943-17.354,36.474-12.823,55a59.983,59.983,0,0,0,14.52,26.693,44.8,44.8,0,0,0,33.042,14.375c1.157,0,2.321-.044,3.486-.131a46.25,46.25,0,0,0,34.977-20.188,73.141,73.141,0,0,1,22.082-20.8,3.056,3.056,0,0,0,1-4.206,3.057,3.057,0,0,0-4.207-1,79.293,79.293,0,0,0-23.927,22.562,40.167,40.167,0,0,1-30.377,17.528,38.815,38.815,0,0,1-31.59-12.3,53.941,53.941,0,0,1-13.066-23.995c-8.489-34.714,19.574-71.531,62.556-82.07,16.878-4.133,31.379-4.177,43.172-.146l-3.184,6.65a19.22,19.22,0,0,0-2.167-1.054c-7.722-3.16-16.1-.659-18.679,5.586-2.09,5.118.329,11.37,5.881,15.2a3.041,3.041,0,0,0,1.734.542,3.053,3.053,0,0,0,2.518-1.32,3.056,3.056,0,0,0-.778-4.252c-3.172-2.19-4.691-5.423-3.7-7.851,1.271-3.075,6.175-4.106,10.7-2.253a12.9,12.9,0,0,1,1.837.937l-6.491,13.559a3.323,3.323,0,0,0-.539,1.124l-1.66,3.467a3.049,3.049,0,0,0-.627.8,3.052,3.052,0,0,0-.355,1.249l-4.3,8.985a17.119,17.119,0,0,0-7.567,6.181,3.057,3.057,0,0,0,.785,4.25,3.056,3.056,0,0,0,4.251-.785,10.737,10.737,0,0,1,6.035-4.389,7.219,7.219,0,0,1,6.021.892c3.609,2.485,4.076,8.1,1.038,12.511a22.741,22.741,0,0,1-15.883,9.088,20.363,20.363,0,0,0,.989-4.376,3.057,3.057,0,0,0-2.68-3.391,3.06,3.06,0,0,0-3.391,2.681,13.8,13.8,0,0,1-2.436,6.452l-2.969,4.313,5.215.465q1.4.124,2.744.123a28.816,28.816,0,0,0,23.447-11.889,16.454,16.454,0,0,0,2.358-14.231l21.318-36.19a56.382,56.382,0,0,1,11.3,22.115l.015.055a44.493,44.493,0,0,1,1.306,14.315c-.8,9.164-5.057,15.2-12.658,17.937-3.213.8-6.352,1.74-9.333,2.8a3.055,3.055,0,0,0-1.854,3.9,3.057,3.057,0,0,0,2.879,2.032,3.066,3.066,0,0,0,1.026-.178c2.835-1.01,5.829-1.906,8.9-2.663l.286-.086c10.006-3.536,15.832-11.565,16.847-23.219A50.287,50.287,0,0,0-5791.4-804.484Zm-42,9.557-6.791-3.65,1.241-2.594,7.009,3.767Z" transform="translate(5941.434 873.309)" fill="#1f2f6a"/>
  <path id="Path_1430" data-name="Path 1430" d="M-5782.111-377.111a17.316,17.316,0,0,0,17.3-17.3,17.316,17.316,0,0,0-17.3-17.3,17.316,17.316,0,0,0-17.3,17.3A17.316,17.316,0,0,0-5782.111-377.111Zm0-28.48a11.2,11.2,0,0,1,11.183,11.183,11.2,11.2,0,0,1-11.183,11.183,11.2,11.2,0,0,1-11.184-11.183A11.2,11.2,0,0,1-5782.111-405.59Z" transform="translate(5831.563 516.214)" fill="#1f2f6a"/>
  <path id="Path_1431" data-name="Path 1431" d="M-5819.01-537.239c7.753,0,14.2-4.813,14.653-11.184a11.322,11.322,0,0,0-4.1-9.252,17.263,17.263,0,0,0-10.149-4.05c-8.339-.6-15.521,4.4-16,11.135s5.912,12.7,14.256,13.3Q-5819.68-537.239-5819.01-537.239Zm-9.507-12.914c.223-3.11,4.046-5.507,8.556-5.507.3,0,.607.011.914.033a11.287,11.287,0,0,1,6.551,2.545,5.37,5.37,0,0,1,2.043,4.223c-.238,3.318-4.577,5.822-9.471,5.474S-5828.755-546.835-5828.517-550.153Z" transform="translate(5858.819 632.307)" fill="#1f2f6a"/>
  <path id="Path_1432" data-name="Path 1432" d="M-5693.332-643.5a11.324,11.324,0,0,0,7.531-6.762,11.326,11.326,0,0,0-1.4-10.024,17.256,17.256,0,0,0-8.644-6.684c-7.857-2.869-16.133-.039-18.449,6.306s2.191,13.84,10.047,16.708a18.387,18.387,0,0,0,6.285,1.136A15.733,15.733,0,0,0-5693.332-643.5Zm-8.822-6.2c-4.61-1.683-7.542-5.745-6.4-8.87.792-2.168,3.373-3.418,6.42-3.418a12.3,12.3,0,0,1,4.19.759,11.285,11.285,0,0,1,5.6,4.248,5.369,5.369,0,0,1,.8,4.621h0a5.37,5.37,0,0,1-3.591,3.017A11.291,11.291,0,0,1-5702.154-649.695Z" transform="translate(5766.193 714.551)" fill="#1f2f6a"/>
</svg>
