<svg xmlns="http://www.w3.org/2000/svg" width="146.843" height="169.985" viewBox="0 0 146.843 169.985">
  <g id="Group_659" data-name="Group 659" transform="translate(-175.71 -124.603)">
    <path id="Path_1522" data-name="Path 1522" d="M322.553,220.025a3.056,3.056,0,0,0-3.056-3.056H175.71V323.359h69.382v39.625a3.056,3.056,0,0,0,6.113,0V323.359h71.348V232.182a3.056,3.056,0,1,0-6.113,0v85.065H181.823v-9.822H306.418a2.377,2.377,0,1,0,0-4.755H181.823V223.081H319.5A3.056,3.056,0,0,0,322.553,220.025Z" transform="translate(0 -71.453)" fill="#1f2f6a"/>
    <path id="Path_1523" data-name="Path 1523" d="M417.4,124.6a3.056,3.056,0,0,0-3.057,3.056v6.7h-16.79a3.056,3.056,0,0,0,0,6.113h39.692a3.056,3.056,0,1,0,0-6.113h-16.79v-6.7A3.056,3.056,0,0,0,417.4,124.6Z" transform="translate(-169.255)" fill="#1f2f6a"/>
    <path id="Path_1524" data-name="Path 1524" d="M349.782,709.877a3.056,3.056,0,0,0-4.156,1.189l-17.46,31.448a3.056,3.056,0,1,0,5.345,2.967l17.46-31.449A3.056,3.056,0,0,0,349.782,709.877Z" transform="translate(-117.642 -452.466)" fill="#1f2f6a"/>
    <path id="Path_1525" data-name="Path 1525" d="M565.142,711.066a3.056,3.056,0,1,0-5.344,2.967l17.459,31.448a3.056,3.056,0,1,0,5.344-2.967Z" transform="translate(-296.83 -452.466)" fill="#1f2f6a"/>
    <g id="Group_658" data-name="Group 658" transform="translate(195.582 176.723)">
      <path id="Path_1526" data-name="Path 1526" d="M292.744,381.757a2.469,2.469,0,0,1-.917,1.936,3.115,3.115,0,0,1-2.1.794,2.747,2.747,0,0,1-1.467-.428,2.707,2.707,0,0,1-1.06-1.284l-2.16-4.809H271.226l-2.16,4.809a2.751,2.751,0,0,1-1.039,1.284,2.715,2.715,0,0,1-1.487.428,3.189,3.189,0,0,1-2.119-.794,2.447,2.447,0,0,1-.937-1.936,3.266,3.266,0,0,1,.326-1.3l11-23.107a3.19,3.19,0,0,1,1.345-1.487,3.865,3.865,0,0,1,3.872.021,3.611,3.611,0,0,1,1.385,1.467l11,23.107A3.276,3.276,0,0,1,292.744,381.757Zm-19.358-8.6h9.5l-4.728-10.6Z" transform="translate(-263.483 -355.227)" fill="#1f2f6a"/>
      <path id="Path_1527" data-name="Path 1527" d="M480.732,372.832a7.208,7.208,0,0,1,1.365,4.462,6.947,6.947,0,0,1-2.669,5.746,11.534,11.534,0,0,1-7.356,2.119H461.4a2.7,2.7,0,0,1-2.975-2.975V359.4a2.7,2.7,0,0,1,2.975-2.975h10.27a11.485,11.485,0,0,1,7.111,2,6.486,6.486,0,0,1,2.629,5.461,6.616,6.616,0,0,1-1.2,3.933,6.827,6.827,0,0,1-3.321,2.465A7.205,7.205,0,0,1,480.732,372.832Zm-16.118-4.707h5.991a6.224,6.224,0,0,0,3.607-.835,2.928,2.928,0,0,0,1.161-2.547,3.018,3.018,0,0,0-1.161-2.629,6.229,6.229,0,0,0-3.607-.836h-5.991Zm10.392,11.329a3.238,3.238,0,0,0,1.141-2.771,3.358,3.358,0,0,0-1.141-2.812,5.968,5.968,0,0,0-3.668-.9h-6.724v7.336h6.724A6.179,6.179,0,0,0,475.006,379.454Z" transform="translate(-414.285 -356.062)" fill="#1f2f6a"/>
      <path id="Path_1528" data-name="Path 1528" d="M635.659,382.481a12.064,12.064,0,0,1-4.891-5.135,18.694,18.694,0,0,1,0-15.629,12.1,12.1,0,0,1,4.891-5.114,16.057,16.057,0,0,1,16.627,1.141,3.064,3.064,0,0,1,.856.978,2.724,2.724,0,0,1,.245,1.223,2.852,2.852,0,0,1-.591,1.814,1.779,1.779,0,0,1-1.447.754,3.147,3.147,0,0,1-1-.143,3.892,3.892,0,0,1-.958-.509,13.733,13.733,0,0,0-3.016-1.528,9.238,9.238,0,0,0-2.975-.469,7.153,7.153,0,0,0-5.889,2.425q-1.977,2.426-1.977,7.234,0,9.7,7.865,9.7a8.6,8.6,0,0,0,2.853-.468,18.045,18.045,0,0,0,3.138-1.528,5.888,5.888,0,0,1,1.019-.509,2.829,2.829,0,0,1,.937-.143,1.781,1.781,0,0,1,1.447.754,2.856,2.856,0,0,1,.591,1.814,2.67,2.67,0,0,1-.265,1.243,3.006,3.006,0,0,1-.835.958,16.057,16.057,0,0,1-16.627,1.141Z" transform="translate(-546.289 -354.81)" fill="#1f2f6a"/>
    </g>
  </g>
</svg>
