<svg xmlns="http://www.w3.org/2000/svg" width="137.515" height="117.951" viewBox="0 0 137.515 117.951">
  <g id="Group_611" data-name="Group 611" transform="translate(-1020.396 -125.1)">
    <path id="Path_1467" data-name="Path 1467" d="M-2828.747-692.191a3.056,3.056,0,0,0-3.056-3.057h-13.168v-52.52h22.17v57.574l63.5,27.659V-780.486l-50.4,21.952a3.057,3.057,0,0,0-1.582,4.023,3.057,3.057,0,0,0,4.023,1.582l41.844-18.226v99.291l-51.277-22.334V-753.88h-34.4v64.746h19.281A3.056,3.056,0,0,0-2828.747-692.191Z" transform="translate(3871.48 905.586)" fill="#1f2f6a"/>
    <path id="Path_1468" data-name="Path 1468" d="M-2413.515-681.653a2.378,2.378,0,0,0-2.377,2.377,2.377,2.377,0,0,0,2.377,2.377,31.888,31.888,0,0,1,31.852,31.852,31.878,31.878,0,0,1-31.852,31.833,2.377,2.377,0,0,0-2.377,2.377,2.377,2.377,0,0,0,2.377,2.377,36.638,36.638,0,0,0,36.606-36.588A36.648,36.648,0,0,0-2413.515-681.653Z" transform="translate(3534.82 829.131)" fill="#1f2f6a"/>
    <path id="Path_1469" data-name="Path 1469" d="M-2413.515-577.8a2.377,2.377,0,0,0-2.377,2.377,2.378,2.378,0,0,0,2.377,2.377,21.971,21.971,0,0,0,21.956-21.937,21.981,21.981,0,0,0-21.956-21.956,2.377,2.377,0,0,0-2.377,2.377,2.378,2.378,0,0,0,2.377,2.377,17.221,17.221,0,0,1,17.2,17.2A17.211,17.211,0,0,1-2413.515-577.8Z" transform="translate(3534.82 779.07)" fill="#1f2f6a"/>
  </g>
</svg>
