<svg xmlns="http://www.w3.org/2000/svg" width="127.64" height="152.364" viewBox="0 0 127.64 152.364">
  <g id="Group_668" data-name="Group 668" transform="translate(-228.012 -175.327)">
    <path id="Path_1549" data-name="Path 1549" d="M355.073,212.061a2.773,2.773,0,0,0-2.194-1.077H343.8a44.82,44.82,0,0,0-11.978-18.665,51.5,51.5,0,0,0-33.937-13.781h-.033l-.031,0a14.647,14.647,0,0,1-4.551-1.3,21.22,21.22,0,0,0-7.674-1.907c-9.225,0-22.332,7.849-22.332,15.176,0,2.544,1.459,4.9,4.109,6.641a18.032,18.032,0,0,0,9.409,2.752,10.118,10.118,0,0,0,3.969-.706c6.713-2.915,10.765-4.674,15.486-4.674,12.765,0,23.837,6.716,29.176,16.468H230.785a2.773,2.773,0,0,0-2.682,3.476l.949,3.623a32.948,32.948,0,0,0,9.8,16.128,78.82,78.82,0,0,0,43.712,19.859v5.462c-19.025,2.271-29.468,10.1-29.468,22.158,0,9.955,5.749,17.041,16.187,19.953a33.873,33.873,0,0,0,10.2,1.157q1.568-.051,3.077-.04v6.006h-9.122a4.521,4.521,0,0,0-4.516,4.516v11.638a2.773,2.773,0,0,0,2.773,2.773h40.267a2.773,2.773,0,0,0,2.773-2.773V313.28a4.494,4.494,0,0,0-1.014-2.846c.146.081.294.162.436.242a43.4,43.4,0,0,1,11.219,8.665,2.157,2.157,0,0,0,3.751-1.922c-2.8-10.605-10.213-18.293-22.023-22.85a59.428,59.428,0,0,0-6.006-1.94V274.671c11.682-1.295,22.717-7.2,31.251-16.765a53.942,53.942,0,0,0,12.373-23.653,2.769,2.769,0,0,0,.3-.238l.073-.067a32.578,32.578,0,0,0,9.527-15.911l.932-3.582A2.773,2.773,0,0,0,355.073,212.061Zm-120.657,4.616-.038-.147h93.336a27.08,27.08,0,0,1,1.1,7.626,34.754,34.754,0,0,1-5.294,17.766,2.769,2.769,0,0,0-.39.145A73.444,73.444,0,0,1,242.572,230.1,27.417,27.417,0,0,1,234.416,216.677ZM301.1,254.058a79.9,79.9,0,0,0,15.142-3.321,31.253,31.253,0,0,1-15.142,7.751Zm-23.976,35.767c-7.678,0-8.736-3.145-8.736-6.544,0-5.093,8.023-7.087,14.175-7.866v14.535C280.791,289.869,278.981,289.825,277.125,289.825ZM288.11,303a69.919,69.919,0,0,1,7.445,1v4.766H288.11Zm21.083,19.148H274.471V314.31h34.721Zm1.03-13.381H301.1V305.3a60.993,60.993,0,0,1,9.371,3.475C310.388,308.773,310.307,308.764,310.223,308.764Zm10.728,1.086c-1.317-.918-2.806-1.871-4.468-2.817-7.4-4.211-19.847-9.112-37.137-8.547a29.559,29.559,0,0,1-8.9-1c-8.648-2.412-13.032-7.726-13.032-15.8,0-5.792,2.971-10.153,9.083-13.333a48.915,48.915,0,0,1,16.071-4.476v7.189c-8.871,1.051-18.488,4.069-18.488,12.211,0,3.612,1.161,6.38,3.451,8.226,2.2,1.771,5.337,2.632,9.6,2.632q3.475,0,6.734.2a2.757,2.757,0,0,0,2.609.187,69.534,69.534,0,0,1,19.087,4.072C312.371,301.224,317.521,304.994,320.951,309.851ZM288.11,290.34V254.613h7.445v36.765Q291.991,290.719,288.11,290.34Zm41.023-35.305c-7.7,8.637-17.586,14.012-28.032,15.3v-7.466c8.256-1.318,16.05-5.94,22.147-13.192q1-1.185,1.9-2.43c.114-.053.228-.1.342-.158a2.771,2.771,0,0,0,1.582-2.712,39.2,39.2,0,0,0,6.052-20.217,31.362,31.362,0,0,0-1.642-10.025,2.732,2.732,0,0,0-.956-2.492C325.1,199.093,311.774,190.2,296.233,190.2c-5.617,0-10.227,2-17.2,5.031-1.829.794-6.382.214-9.294-1.7-.986-.647-2.161-1.7-2.161-3.034,0-1.516,1.812-4.211,5.86-6.814,3.885-2.5,8.544-4.049,12.159-4.049a17.732,17.732,0,0,1,6.1,1.611,17.543,17.543,0,0,0,6.046,1.6h.011a47.188,47.188,0,0,1,31.1,12.606A40.286,40.286,0,0,1,340.224,214.1a2.752,2.752,0,0,0,.188.721,38.032,38.032,0,0,1,1.163,9.336,40.18,40.18,0,0,1-.449,5.928,2.771,2.771,0,0,0-.539,2.911A49.512,49.512,0,0,1,329.132,255.035Zm20.13-38.395a27.557,27.557,0,0,1-3.377,7.8c0-.1,0-.192,0-.288a42.48,42.48,0,0,0-.689-7.626h4.091Z" fill="#1f2f6a"/>
    <path id="Path_1550" data-name="Path 1550" d="M314.995,383.92a39.025,39.025,0,0,1-11.125-7.953h47.123a2.157,2.157,0,1,0,0-4.313H298.98a2.157,2.157,0,0,0-1.7,3.486c.278.355,6.916,8.747,15.977,12.729a2.157,2.157,0,0,0,1.735-3.949Z" transform="translate(-52.666 -150.26)" fill="#1f2f6a"/>
  </g>
</svg>
