<svg xmlns="http://www.w3.org/2000/svg" width="145.108" height="129.66" viewBox="0 0 145.108 129.66">
  <g id="Group_620" data-name="Group 620" transform="translate(-320.942 -479.863)">
    <path id="Path_1464" data-name="Path 1464" d="M-5637.423,335.232a3.056,3.056,0,0,0-3.056-3.057,3.056,3.056,0,0,0-3.057,3.057v36.811a20.723,20.723,0,0,0-10.953-2.935c-9.571,0-17.067,5.666-17.067,12.9s7.5,12.9,17.067,12.9,17.065-5.666,17.065-12.9Zm-17.065,53.561c-5.938,0-10.955-3.107-10.955-6.786s5.017-6.785,10.955-6.785,10.953,3.107,10.953,6.785S-5648.551,388.793-5654.488,388.793Z" transform="translate(6053.379 174.84)" fill="#ffa25f"/>
    <path id="Path_1465" data-name="Path 1465" d="M-5845.443,212.252l-66.994,18.412v16.141q0,.068,0,.136v59.026c0,3.678-5.016,6.785-10.954,6.785s-10.954-3.107-10.954-6.785,5.016-6.786,10.954-6.786a15.9,15.9,0,0,1,5.482.947,3.057,3.057,0,0,0,3.93-1.8,3.056,3.056,0,0,0-1.8-3.93,21.755,21.755,0,0,0-7.613-1.33c-9.57,0-17.067,5.666-17.067,12.9s7.5,12.9,17.067,12.9,17.067-5.665,17.067-12.9V249.2l60.881-16.732Zm-6.112,15.561-54.769,15.052v-7.542l54.769-15.052Z" transform="translate(6261.4 267.611)" fill="#ffa25f"/>
    <path id="Path_1466" data-name="Path 1466" d="M-5484.676,403.06a31.649,31.649,0,0,0-9.646-6.05l-4.079-1.447v75.26c0,3.678-5.017,6.785-10.955,6.785s-10.953-3.107-10.953-6.785,5.015-6.786,10.953-6.786a15.885,15.885,0,0,1,5.482.947,3.057,3.057,0,0,0,3.931-1.8,3.057,3.057,0,0,0-1.8-3.93,21.772,21.772,0,0,0-7.614-1.33c-9.569,0-17.067,5.666-17.067,12.9s7.5,12.9,17.067,12.9,17.068-5.666,17.068-12.9V404.875a23.2,23.2,0,0,1,11.12,20.146,3.056,3.056,0,0,0,3.057,3.056,3.057,3.057,0,0,0,3.057-3.056A28.859,28.859,0,0,0-5484.676,403.06Z" transform="translate(5941.105 125.803)" fill="#ffa25f"/>
  </g>
</svg>
