<svg xmlns="http://www.w3.org/2000/svg" width="150.13" height="170.152" viewBox="0 0 150.13 170.152">
  <g id="Group_612" data-name="Group 612" transform="translate(-1479.998 -99.001)">
    <path id="Path_1503" data-name="Path 1503" d="M-734.431-824.721a2.368,2.368,0,0,0-1.892-.325c-.391-7.6-1.1-14.93-2.112-21.921,3.444-1.312,6.857-2.485,10.2-3.511a9.777,9.777,0,0,0,8.671,5.277,9.781,9.781,0,0,0,9.758-9.323c8.648-.908,14.588.391,16.485,3.669,3.15,5.461-3.723,17.041-17.937,30.222a2.377,2.377,0,0,0-.127,3.36,2.37,2.37,0,0,0,1.744.761,2.369,2.369,0,0,0,1.616-.634c16.653-15.442,23.338-28.257,18.821-36.087-3-5.175-10.424-7.22-21.556-5.969a9.782,9.782,0,0,0-8.8-5.537,9.779,9.779,0,0,0-9.766,9.625c-3.23.985-6.526,2.107-9.847,3.351-2.052-12.262-5.005-22.657-8.592-30.195-4.359-9.161-9.438-13.806-15.1-13.806s-10.741,4.645-15.106,13.8c-3.594,7.544-6.552,17.941-8.6,30.2-3.922-1.466-7.735-2.747-11.389-3.82a2.378,2.378,0,0,0-2.951,1.611,2.377,2.377,0,0,0,1.611,2.951c3.832,1.126,7.848,2.489,11.984,4.059-.974,6.7-1.66,13.734-2.043,20.957-6.151,4.023-11.91,8.146-17.155,12.281-3.088-2.524-5.968-5.042-8.605-7.521a9.708,9.708,0,0,0,1.033-4.364,9.781,9.781,0,0,0-9.77-9.77,9.716,9.716,0,0,0-3.493.648c-5.118-7.043-6.969-12.846-5.078-16.124,2.1-3.637,9.17-4.839,19.41-3.3a2.379,2.379,0,0,0,2.7-2,2.377,2.377,0,0,0-2-2.7c-12.639-1.9-21.019.044-24.236,5.625-2.938,5.093-1.1,12.4,5.308,21.233a9.725,9.725,0,0,0-2.387,6.388,9.781,9.781,0,0,0,9.769,9.769,9.713,9.713,0,0,0,5.635-1.8c2.452,2.3,5.1,4.625,7.925,6.956-9.586,7.9-17.11,15.658-21.845,22.541-5.748,8.355-7.23,15.075-4.4,19.974,2.441,4.224,7.646,6.354,15.5,6.354q1.9,0,4-.166c8.317-.657,18.8-3.293,30.457-7.643a161.016,161.016,0,0,0,3.686,16.723,2.379,2.379,0,0,0,2.287,1.732,2.386,2.386,0,0,0,.647-.09,2.377,2.377,0,0,0,1.643-2.933,158.416,158.416,0,0,1-3.733-17.188c6.281-2.515,12.721-5.436,19.193-8.7,6.484,3.276,12.915,6.2,19.163,8.707-.452,2.824-.952,5.529-1.494,8.087a9.78,9.78,0,0,0-8.983,9.735,9.761,9.761,0,0,0,3.948,7.841c-3.809,9.788-8.354,15.343-12.635,15.343-3.744,0-7.758-4.316-11.3-12.153a2.378,2.378,0,0,0-3.146-1.186,2.377,2.377,0,0,0-1.186,3.146c4.487,9.919,9.747,14.948,15.635,14.948,6.493,0,12.35-6.305,17.027-18.274a9.815,9.815,0,0,0,1.429.105,9.781,9.781,0,0,0,9.77-9.77,9.782,9.782,0,0,0-5.862-8.951c.477-2.27.921-4.648,1.329-7.114,11.651,4.348,22.138,6.982,30.464,7.639q2.107.166,4.007.166c7.862,0,13.068-2.131,15.5-6.354C-681.583-781.358-706.427-806.076-734.431-824.721Zm11.385,14.033c-4.179,3.24-8.557,6.4-13.075,9.431.1-3.159.162-6.32.162-9.443q0-4.771-.156-9.426C-731.506-817.027-727.127-813.862-723.046-810.688Zm-19.935,34.482c-4.8-1.957-9.712-4.167-14.668-6.59,2.879-1.536,5.6-3.047,8.234-4.571,2.666-1.537,5.371-3.167,8.078-4.856C-741.716-786.711-742.264-781.348-742.981-776.206Zm-46.657-25.051c-4.552-3.055-8.927-6.209-13.063-9.425,4.067-3.171,8.445-6.331,13.069-9.442-.108,3.1-.168,6.246-.168,9.424C-789.8-807.577-789.743-804.417-789.638-801.257Zm5.216,9.046c2.507,1.562,5.177,3.164,8.079,4.845,2.707,1.56,5.471,3.087,8.253,4.57-4.952,2.419-9.873,4.628-14.7,6.59C-783.5-781.374-784.046-786.734-784.422-792.211Zm10.457.728c-3.978-2.3-7.516-4.459-10.79-6.567-.19-4.221-.291-8.469-.291-12.649,0-4.288.106-8.527.307-12.641,3.405-2.18,7.023-4.381,10.774-6.554,3.531-2.045,7.171-4.034,11.088-6.061,3.7,1.914,7.409,3.94,11.089,6.064a2.365,2.365,0,0,0,1.186.319,2.377,2.377,0,0,0,2.061-1.189,2.378,2.378,0,0,0-.87-3.247q-4.1-2.37-8.245-4.575c5.025-2.465,9.938-4.675,14.673-6.595a250.14,250.14,0,0,1,2.27,34.48c0,4.178-.1,8.423-.291,12.64-3.61,2.313-7.233,4.526-10.79,6.576-3.477,2.014-7.115,4-11.074,6.062C-766.61-787.36-770.339-789.394-773.965-791.483Zm54.4-67.145a3.661,3.661,0,0,1,3.657,3.656,3.661,3.661,0,0,1-3.657,3.656,3.661,3.661,0,0,1-3.656-3.656A3.661,3.661,0,0,1-719.569-858.628Zm-43.3-32.383c6.3,0,14.584,12.7,19.159,41-6.136,2.446-12.568,5.37-19.167,8.713-6.487-3.279-12.94-6.213-19.172-8.713C-777.474-878.311-769.178-891.01-762.87-891.01Zm-5.232,52.426c-2.854,1.519-5.581,3.031-8.247,4.575-2.769,1.6-5.466,3.224-8.064,4.84.368-5.49.912-10.849,1.633-16.006C-777.987-843.222-773.066-841.013-768.1-838.584Zm-55.761,16.63a3.661,3.661,0,0,1-3.656-3.656,3.661,3.661,0,0,1,3.656-3.657,3.661,3.661,0,0,1,3.657,3.657A3.661,3.661,0,0,1-823.862-821.954Zm-8.572,51.411c-3.15-5.463,3.7-18.99,25.915-37.094,5.358,4.212,11.112,8.324,17.137,12.249.4,7.21,1.083,14.245,2.044,20.966C-814.133-764.254-829.282-765.087-832.434-770.543Zm88.021,20.648a3.661,3.661,0,0,1-3.656-3.657,3.661,3.661,0,0,1,3.656-3.656,3.661,3.661,0,0,1,3.657,3.656A3.661,3.661,0,0,1-744.413-749.9Zm51.087-20.646c-3.144,5.463-18.293,6.3-45.11-3.879.967-6.665,1.658-13.7,2.059-20.968,5.97-3.889,11.733-8,17.155-12.253a135.243,135.243,0,0,1,17.763,17.064C-694.037-781.743-691.072-774.442-693.327-770.541Z" transform="translate(2317.941 994.766)" fill="#ffa25f"/>
    <path id="Path_1504" data-name="Path 1504" d="M-546.86-572.348A11.862,11.862,0,0,0-558.709-560.5a11.862,11.862,0,0,0,11.849,11.849A11.862,11.862,0,0,0-535.012-560.5,11.862,11.862,0,0,0-546.86-572.348Zm0,17.584A5.742,5.742,0,0,1-552.6-560.5a5.742,5.742,0,0,1,5.736-5.736,5.742,5.742,0,0,1,5.736,5.736A5.742,5.742,0,0,1-546.86-554.764Z" transform="translate(2101.711 744.572)" fill="#ffa25f"/>
  </g>
</svg>
