<svg xmlns="http://www.w3.org/2000/svg" width="92.233" height="155.746" viewBox="0 0 92.233 155.746">
  <g id="Group_657" data-name="Group 657" transform="translate(-272.379 -141.12)">
    <g id="Group_656" data-name="Group 656" transform="translate(272.379 141.12)">
      <path id="Path_1521" data-name="Path 1521" d="M316.329,296.866a89.913,89.913,0,0,1-18.795-1.734,45.028,45.028,0,0,1-14.419-5.7,13.141,13.141,0,0,1-4.889-5.122,14.8,14.8,0,0,1-1.679-7.052,12.542,12.542,0,0,1,2.856-8.309,9.664,9.664,0,0,1,7.586-3.633,16.438,16.438,0,0,1,5.181.9c1.561.52,3.176,1.137,4.8,1.832a76.915,76.915,0,0,0,9.379,3.289,42.311,42.311,0,0,0,10.812,1.146c3.382,0,6.029-.779,7.866-2.315a7.141,7.141,0,0,0,2.53-5.912,6.967,6.967,0,0,0-1.686-4.811c-1.331-1.514-3.722-3.091-7.106-4.687l-7.347-3.309a2.941,2.941,0,1,1,2.416-5.363l7.416,3.341c4.187,1.972,7.144,3.979,9.04,6.136a12.774,12.774,0,0,1,3.15,8.693,12.953,12.953,0,0,1-4.637,10.423c-2.926,2.447-6.842,3.686-11.641,3.686a48,48,0,0,1-12.36-1.354,82.726,82.726,0,0,1-10.115-3.543l-.02-.008c-1.48-.633-2.946-1.193-4.358-1.663a10.59,10.59,0,0,0-3.32-.6,3.765,3.765,0,0,0-3.079,1.53,6.742,6.742,0,0,0-1.481,4.53,8.876,8.876,0,0,0,.987,4.283,7.241,7.241,0,0,0,2.753,2.863l.052.032a39.154,39.154,0,0,0,12.563,4.952,84.106,84.106,0,0,0,17.545,1.6c11.573,0,20.562-2.578,26.716-7.661,6.067-5.017,9.017-11.964,9.017-21.237a23.329,23.329,0,0,0-3.738-12.14l-1.3-2.13,1.89-1.628c6.6-5.689,9.814-12.594,9.814-21.109a23.543,23.543,0,0,0-4.964-15.031c-3.409-4.372-8.9-8.285-16.308-11.628l-21.678-9.838c-4.115-1.87-7.073-3.929-9.045-6.3a13.748,13.748,0,0,1-3.182-9.051,12.291,12.291,0,0,1,5.133-10.383c3.113-2.252,7.31-3.393,12.477-3.393a26.015,26.015,0,0,1,8.744,1.34,70.695,70.695,0,0,1,7.575,3.305l.168.084.156.1a17.092,17.092,0,0,0,1.7.866,26.688,26.688,0,0,0,3.005,1.2,8.872,8.872,0,0,0,2.823.433,3.6,3.6,0,0,0,3.025-1.63,7.664,7.664,0,0,0,1.535-4.931,7.226,7.226,0,0,0-3.764-6.661C339.07,149.21,330.5,147,320.662,147c-11.136,0-20.013,2.663-26.385,7.914-6.29,5.184-9.348,12.048-9.348,20.985a20.415,20.415,0,0,0,3.819,11.841l1.5,2.195-2.033,1.715a28.135,28.135,0,0,0-7.406,9.51,26.881,26.881,0,0,0-2.552,11.58c0,6.159,1.594,11.181,4.872,15.353,3.357,4.271,8.818,8.131,16.233,11.472a2.941,2.941,0,0,1-2.416,5.363c-8.288-3.734-14.493-8.176-18.442-13.2-4.067-5.176-6.129-11.565-6.129-18.988a32.717,32.717,0,0,1,3.115-14.093,33.536,33.536,0,0,1,7.032-9.775,26.014,26.014,0,0,1-3.479-12.973c0-10.654,3.865-19.241,11.489-25.524,7.453-6.142,17.589-9.257,30.126-9.257,10.949,0,20.555,2.5,28.551,7.441a13.11,13.11,0,0,1,6.564,11.67,13.5,13.5,0,0,1-2.8,8.57,9.523,9.523,0,0,1-7.646,3.873,14.719,14.719,0,0,1-4.685-.736,32.477,32.477,0,0,1-3.66-1.465,23.09,23.09,0,0,1-2.28-1.181,64.332,64.332,0,0,0-6.79-2.959,20.228,20.228,0,0,0-6.757-.994c-3.9,0-6.941.766-9.029,2.276a6.384,6.384,0,0,0-2.7,5.619,7.913,7.913,0,0,0,1.819,5.285,19.637,19.637,0,0,0,6.959,4.706l21.67,9.835c8.286,3.737,14.52,8.237,18.524,13.372a29.6,29.6,0,0,1,6.207,18.646A32.241,32.241,0,0,1,354.545,249a28.141,28.141,0,0,1,3.4,13.081c0,10.982-3.752,19.653-11.152,25.771C339.554,293.835,329.3,296.866,316.329,296.866Zm22.6-56.393-2.686-1.488c-1.934-1.072-3.371-1.818-4.271-2.218l-.056-.026-22.375-10.52c-9.946-4.848-14.989-11.178-14.989-18.813A14.724,14.724,0,0,1,297,199.5l1.5-2.382,2.445,1.4c.725.415,1.46.809,2.184,1.17.825.415,1.506.783,2.088,1.126L327.288,211.6c9.943,4.847,14.986,11.233,14.986,18.979a16.127,16.127,0,0,1-1.977,7.148Zm-4.536-9.068c.486.217,1.069.5,1.757.853a6.732,6.732,0,0,0,.246-1.68c0-5.381-3.822-9.86-11.684-13.693l-22.284-10.892-.107-.063c-.415-.248-.913-.521-1.516-.829a7.544,7.544,0,0,0-.37,2.306c0,5.265,3.816,9.686,11.665,13.517Z" transform="translate(-272.379 -141.12)" fill="#1f2f6a"/>
    </g>
  </g>
</svg>
