<svg xmlns="http://www.w3.org/2000/svg" width="156.867" height="125.562" viewBox="0 0 156.867 125.562">
  <g id="Group_618" data-name="Group 618" transform="translate(-776.932 -482.23)">
    <path id="Path_1498" data-name="Path 1498" d="M-3771.937,282.532h-11.435a38.908,38.908,0,0,0,5.883-20.7,38.812,38.812,0,0,0-11.484-27.643,38.912,38.912,0,0,0-27.691-11.483,39.051,39.051,0,0,0-26.144,10.015l-6.154,6.093-4.555-4.586A39.045,39.045,0,0,0-3881.2,222.8a39.052,39.052,0,0,0-27.7,11.441,39.292,39.292,0,0,0-5.609,48.293h-9.543a2.378,2.378,0,0,0-2.378,2.377,2.378,2.378,0,0,0,2.378,2.377h13q1.02,1.2,2.15,2.333l57.754,57.754a3.049,3.049,0,0,0,2.162.9,3.047,3.047,0,0,0,2.161-.9,3.056,3.056,0,0,0,0-4.323l-55.764-55.764h23.559l6.875-17.072,15.794,43.87,9.139-26.8h9.64l5.114-9.944,9.972,22.436,6.507-12.492h13.06a2.377,2.377,0,0,0,2.377-2.377,2.377,2.377,0,0,0-2.377-2.377h-15.944l-3.283,6.3-10-22.5-8.328,16.194h-10.141l-5.858,17.179-15.424-42.842-10.333,25.663h-24.8a33.138,33.138,0,0,1,2.457-43.967,32.972,32.972,0,0,1,23.377-9.654,32.958,32.958,0,0,1,23.362,9.64l8.843,8.9,10.329-10.235a32.945,32.945,0,0,1,22-8.4,32.842,32.842,0,0,1,23.373,9.7,32.747,32.747,0,0,1,9.689,23.322,32.856,32.856,0,0,1-9.693,23.413l-6.783,6.783-42.538,42.5a3.056,3.056,0,0,0,0,4.323,3.057,3.057,0,0,0,4.323,0l42.539-42.5,6.783-6.784q1.181-1.18,2.245-2.443a2.371,2.371,0,0,0,.84.156h13.95a2.377,2.377,0,0,0,2.377-2.377A2.377,2.377,0,0,0-3771.937,282.532Z" transform="translate(4703.359 259.523)" fill="#1d1d1d"/>
  </g>
</svg>
