<svg xmlns="http://www.w3.org/2000/svg" width="181.458" height="126.419" viewBox="0 0 181.458 126.419">
  <g id="Group_667" data-name="Group 667" transform="translate(-2190.349 -256.403)">
    <path id="Path_1536" data-name="Path 1536" d="M2371.264,363.678a2.539,2.539,0,0,0,0-3.139V271.548a2.541,2.541,0,0,0-5.083,0v87.384H2299.9a21.333,21.333,0,0,0-16.284,7.542v-88.7a16.3,16.3,0,0,1,16.284-16.283h68.818a2.541,2.541,0,1,0,0-5.083H2299.9a21.384,21.384,0,0,0-18.825,11.271,21.383,21.383,0,0,0-18.825-11.271H2190.9v89.734a2.541,2.541,0,1,0,5.082,0V261.486h66.277a16.3,16.3,0,0,1,16.284,16.283v88.7a21.333,21.333,0,0,0-16.284-7.542h-68.818a2.537,2.537,0,0,0-2.173,1.229c-.027.022-.054.042-.08.065a2.542,2.542,0,0,0-.177,3.59l9.579,10.57h67.052l.157,0c1.773-.108,6.907.124,9.353,2.427a4.453,4.453,0,0,1,1.39,3.473,2.541,2.541,0,1,0,5.082,0,4.454,4.454,0,0,1,1.39-3.473c2.445-2.3,7.58-2.534,9.348-2.428l67.214.005,9.4-10.371h.292Zm-99.079,5.86a26.052,26.052,0,0,0-4.614-.236H2202.84l-4.793-5.289h64.208a16.263,16.263,0,0,1,12.688,6.088A21.954,21.954,0,0,0,2272.185,369.538Zm87.135-.236h-64.732a26.055,26.055,0,0,0-4.614.236,21.95,21.95,0,0,0-2.758.564,16.264,16.264,0,0,1,12.689-6.088h64.208Z" fill="#1d1d1d"/>
    <path id="Path_1537" data-name="Path 1537" d="M2327.181,327.93a1.977,1.977,0,1,0,0-3.953h-43.3v27.94h45.278v-13.97a1.977,1.977,0,0,0-3.953,0v10.017h-37.372V327.93Z" transform="translate(-69.261 -50.04)" fill="#1d1d1d"/>
    <path id="Path_1538" data-name="Path 1538" d="M2285.856,472.713h41.325a1.976,1.976,0,1,0,0-3.953h-41.325a1.976,1.976,0,1,0,0,3.953Z" transform="translate(-69.261 -157.254)" fill="#1d1d1d"/>
    <path id="Path_1539" data-name="Path 1539" d="M2397.508,523.294h-16.682a1.977,1.977,0,0,0,0,3.953h16.682a1.977,1.977,0,1,0,0-3.953Z" transform="translate(-139.588 -197.637)" fill="#1d1d1d"/>
    <path id="Path_1540" data-name="Path 1540" d="M2285.856,527.247h9.912a1.977,1.977,0,0,0,0-3.953h-9.912a1.977,1.977,0,1,0,0,3.953Z" transform="translate(-69.261 -197.637)" fill="#1d1d1d"/>
    <path id="Path_1541" data-name="Path 1541" d="M2285.856,581.782H2304.3a1.977,1.977,0,1,0,0-3.953h-18.439a1.977,1.977,0,1,0,0,3.953Z" transform="translate(-69.261 -238.021)" fill="#1d1d1d"/>
    <path id="Path_1542" data-name="Path 1542" d="M2660.669,468.76h-41.325a1.976,1.976,0,1,0,0,3.953h41.325a1.976,1.976,0,1,0,0-3.953Z" transform="translate(-316.214 -157.254)" fill="#1d1d1d"/>
    <path id="Path_1543" data-name="Path 1543" d="M2763.261,414.225h-5.375a1.977,1.977,0,1,0,0,3.953h5.375a1.977,1.977,0,1,0,0-3.953Z" transform="translate(-418.805 -116.87)" fill="#1d1d1d"/>
    <path id="Path_1544" data-name="Path 1544" d="M2619.344,418.178h21.218a1.977,1.977,0,1,0,0-3.953h-21.218a1.977,1.977,0,1,0,0,3.953Z" transform="translate(-316.214 -116.87)" fill="#1d1d1d"/>
    <path id="Path_1545" data-name="Path 1545" d="M2619.344,527.247h9.823a1.977,1.977,0,0,0,0-3.953h-9.823a1.977,1.977,0,1,0,0,3.953Z" transform="translate(-316.214 -197.637)" fill="#1d1d1d"/>
    <path id="Path_1546" data-name="Path 1546" d="M2732.718,525.271a1.976,1.976,0,0,0-1.976-1.977h-16.771a1.977,1.977,0,1,0,0,3.953h16.771A1.976,1.976,0,0,0,2732.718,525.271Z" transform="translate(-386.286 -197.637)" fill="#1d1d1d"/>
    <path id="Path_1547" data-name="Path 1547" d="M2660.669,359.691h-41.325a1.976,1.976,0,1,0,0,3.953h41.325a1.976,1.976,0,1,0,0-3.953Z" transform="translate(-316.214 -76.486)" fill="#1d1d1d"/>
    <path id="Path_1548" data-name="Path 1548" d="M2619.344,581.782h22.886a1.977,1.977,0,0,0,0-3.953h-22.886a1.977,1.977,0,1,0,0,3.953Z" transform="translate(-316.214 -238.021)" fill="#1d1d1d"/>
  </g>
</svg>
