<svg xmlns="http://www.w3.org/2000/svg" width="149.037" height="127.878" viewBox="0 0 149.037 127.878">
  <g id="Group_669" data-name="Group 669" transform="translate(-145.977 -179.255)">
    <path id="Path_1551" data-name="Path 1551" d="M290.256,204.308h-45.8V183.5a4.247,4.247,0,0,0-4.243-4.243H200.779a4.247,4.247,0,0,0-4.243,4.243v20.81h-45.8a4.764,4.764,0,0,0-4.758,4.758v93.309a4.764,4.764,0,0,0,4.758,4.758h139.52a4.764,4.764,0,0,0,4.758-4.758V209.066A4.764,4.764,0,0,0,290.256,204.308Zm-34.668,6.541h7.581v13.673h-7.581ZM203.077,195.62h34.837v8.688H203.077Zm0-9.824h34.837v4.736H203.077Zm-30.35,114.8H152.518V210.849h20.209v13.668h-4.371a2.544,2.544,0,0,0-2.544,2.544v13.965a2.544,2.544,0,0,0,2.544,2.544h4.371Zm12.669,0h-7.581V243.57H185.4Zm2.544-62.113c-.024,0-.047,0-.07,0H175.341c-.024,0-.047,0-.07,0s-.047,0-.07,0h-4.3V229.6h21.423v8.878H188.01C187.986,238.482,187.963,238.479,187.939,238.479ZM250.5,300.592H190.483V243.57h4.383a2.544,2.544,0,0,0,2.544-2.544V227.061a2.544,2.544,0,0,0-2.544-2.544h-4.383v-6.14a2.544,2.544,0,1,0-5.087,0v6.14h-7.581V210.849H250.5v13.673h-4.376a2.544,2.544,0,0,0-2.544,2.544v13.966a2.544,2.544,0,0,0,2.544,2.544H250.5Zm2.544-62.108c-.026,0-.051,0-.077,0h-4.3v-8.878h21.423v8.878h-4.3c-.026,0-.051,0-.077,0s-.052,0-.077,0H253.122C253.1,238.487,253.07,238.484,253.044,238.484Zm35.428,62.108H255.588V243.576h7.581v48.937a2.544,2.544,0,0,0,5.088,0V243.576h4.378a2.544,2.544,0,0,0,2.544-2.544V227.066a2.544,2.544,0,0,0-2.544-2.544h-4.378V210.849h20.215Z" transform="translate(0 0)" fill="#ffa25f"/>
    <path id="Path_1552" data-name="Path 1552" d="M412.018,620.132a2.544,2.544,0,0,0-3.254-1.534l-17.455,6.272a2.544,2.544,0,0,0-1.534,3.254l3.895,10.839a2.544,2.544,0,0,0,3.254,1.534l17.455-6.272a2.544,2.544,0,0,0,1.534-3.254ZM397.6,634.85l-2.174-6.051,12.667-4.552,2.174,6.052Z" transform="translate(-192.362 -346.747)" fill="#ffa25f"/>
    <path id="Path_1553" data-name="Path 1553" d="M425.365,383.934l13.535,6.379a2.544,2.544,0,0,0,3.386-1.216l5.741-12.18a2.544,2.544,0,0,0-1.217-3.386l-13.534-6.379a2.544,2.544,0,0,0-3.385,1.217l-5.741,12.18a2.543,2.543,0,0,0,1.217,3.386Zm8.042-11.1,8.932,4.21-3.572,7.578-8.933-4.21Z" transform="translate(-219.427 -148.155)" fill="#ffa25f"/>
    <path id="Path_1554" data-name="Path 1554" d="M512.515,501.057a10.276,10.276,0,1,0,10.276,10.276A10.288,10.288,0,0,0,512.515,501.057Zm0,15.465a5.189,5.189,0,1,1,5.188-5.189A5.195,5.195,0,0,1,512.515,516.522Z" transform="translate(-281.272 -254.066)" fill="#ffa25f"/>
  </g>
</svg>
