<svg xmlns="http://www.w3.org/2000/svg" width="157.826" height="122.454" viewBox="0 0 157.826 122.454">
  <g id="Group_617" data-name="Group 617" transform="translate(-1468.943 -483.785)">
    <path id="Path_1499" data-name="Path 1499" d="M-461.131,609.373a9.722,9.722,0,0,0-9.711,9.711,9.722,9.722,0,0,0,9.711,9.711,9.722,9.722,0,0,0,9.711-9.711A9.722,9.722,0,0,0-461.131,609.373Zm0,14.667a4.962,4.962,0,0,1-4.956-4.956,4.962,4.962,0,0,1,4.956-4.956,4.962,4.962,0,0,1,4.956,4.956A4.962,4.962,0,0,1-461.131,624.04Z" transform="translate(2030.143 -39.598)" fill="#1d1d1d"/>
    <path id="Path_1500" data-name="Path 1500" d="M-754.691,236.148h-36.467v7.819l-34.263-14.395-44.515,105.961,39.256,16.492,39.522-94.076V351.08h79.047V236.148h-42.58Zm-79.257,107.874-27.985-11.757,27.168-64.669,23.939,10.057a2.371,2.371,0,0,0,.92.186,2.377,2.377,0,0,0,2.193-1.457,2.376,2.376,0,0,0-1.271-3.112l-23.939-10.057,2.722-6.479,23.94,10.057a2.37,2.37,0,0,0,.92.186,2.378,2.378,0,0,0,2.193-1.457,2.377,2.377,0,0,0-1.271-3.112l-23.939-10.057,6.207-14.774,27.985,11.757Zm79.257.945h-30.354V275.152h26.187a2.377,2.377,0,0,0,2.377-2.377,2.377,2.377,0,0,0-2.377-2.377h-26.187v-7.027h26.187a2.377,2.377,0,0,0,2.377-2.377,2.377,2.377,0,0,0-2.377-2.377h-26.187V242.261h30.354Zm36.467-102.706V344.967h-30.354V275.152h26.187a2.377,2.377,0,0,0,2.377-2.377,2.377,2.377,0,0,0-2.377-2.377h-26.187v-7.027h26.187a2.377,2.377,0,0,0,2.377-2.377,2.377,2.377,0,0,0-2.377-2.377h-26.187V242.261Z" transform="translate(2338.879 254.213)" fill="#1d1d1d"/>
    <path id="Path_1501" data-name="Path 1501" d="M-300.063,609.373a9.722,9.722,0,0,0-9.711,9.711,9.722,9.722,0,0,0,9.711,9.711,9.722,9.722,0,0,0,9.711-9.711A9.722,9.722,0,0,0-300.063,609.373Zm0,14.667a4.962,4.962,0,0,1-4.956-4.956,4.962,4.962,0,0,1,4.956-4.956,4.962,4.962,0,0,1,4.957,4.956A4.962,4.962,0,0,1-300.063,624.04Z" transform="translate(1905.543 -39.598)" fill="#1d1d1d"/>
    <path id="Path_1502" data-name="Path 1502" d="M-768.53,586.764a9.645,9.645,0,0,0-7.432-.037,9.647,9.647,0,0,0-5.282,5.229,9.645,9.645,0,0,0-.037,7.432,9.647,9.647,0,0,0,5.229,5.282,9.68,9.68,0,0,0,3.761.763,9.7,9.7,0,0,0,3.671-.726,9.649,9.649,0,0,0,5.282-5.229A9.722,9.722,0,0,0-768.53,586.764Zm.809,10.872a4.926,4.926,0,0,1-2.7,2.669,4.923,4.923,0,0,1-3.793-.02,4.922,4.922,0,0,1-2.669-2.7,4.922,4.922,0,0,1,.019-3.793,4.924,4.924,0,0,1,2.7-2.669,4.948,4.948,0,0,1,1.874-.37,4.949,4.949,0,0,1,1.919.39A4.963,4.963,0,0,1-767.721,597.637Z" transform="translate(2270.857 -21.518)" fill="#1d1d1d"/>
  </g>
</svg>
