<svg xmlns="http://www.w3.org/2000/svg" width="157.939" height="103.963" viewBox="0 0 157.939 103.963">
  <g id="Group_613" data-name="Group 613" transform="translate(-83.591 -493.029)">
    <path id="Path_1453" data-name="Path 1453" d="M-6833.912,368.256h-148.77V273.462a3.057,3.057,0,0,0-3.057-3.056,3.056,3.056,0,0,0-3.056,3.056V374.369h154.883a3.056,3.056,0,0,0,3.056-3.056A3.056,3.056,0,0,0-6833.912,368.256Z" transform="translate(7072.386 222.623)" fill="#1d1d1d"/>
    <path id="Path_1454" data-name="Path 1454" d="M-6891.486,321.313l-54.791,54.791a3.057,3.057,0,0,0,0,4.323,3.048,3.048,0,0,0,2.162.9,3.047,3.047,0,0,0,2.161-.9l50.469-50.469,27.227,27.227,43.688-43.688v2.993a3.057,3.057,0,0,0,3.057,3.056,3.057,3.057,0,0,0,3.056-3.056v-13.6h-13.6a3.057,3.057,0,0,0-3.057,3.056,3.057,3.057,0,0,0,3.057,3.057h3.335l-39.538,39.538Z" transform="translate(7040.188 197.496)" fill="#1d1d1d"/>
    <path id="Path_1455" data-name="Path 1455" d="M-6893.777,647.635v3.312a2.377,2.377,0,0,0,2.377,2.377,2.377,2.377,0,0,0,2.377-2.377v-3.312a2.377,2.377,0,0,0-2.377-2.377A2.377,2.377,0,0,0-6893.777,647.635Z" transform="translate(6998.881 -67.359)" fill="#1d1d1d"/>
    <path id="Path_1456" data-name="Path 1456" d="M-6833.089,597.483V612.15a2.377,2.377,0,0,0,2.377,2.377,2.378,2.378,0,0,0,2.377-2.377V597.483a2.378,2.378,0,0,0-2.377-2.377A2.377,2.377,0,0,0-6833.089,597.483Z" transform="translate(6951.934 -28.563)" fill="#1d1d1d"/>
    <path id="Path_1457" data-name="Path 1457" d="M-6772.4,535.565V564.25a2.377,2.377,0,0,0,2.376,2.377,2.377,2.377,0,0,0,2.377-2.377V535.565a2.377,2.377,0,0,0-2.377-2.377A2.376,2.376,0,0,0-6772.4,535.565Z" transform="translate(6904.985 19.338)" fill="#1d1d1d"/>
    <path id="Path_1458" data-name="Path 1458" d="M-6711.715,483V523.59a2.378,2.378,0,0,0,2.378,2.377,2.378,2.378,0,0,0,2.377-2.377V483a2.378,2.378,0,0,0-2.377-2.377A2.378,2.378,0,0,0-6711.715,483Z" transform="translate(6858.039 59.998)" fill="#1d1d1d"/>
    <path id="Path_1459" data-name="Path 1459" d="M-6651.027,535.565V564.25a2.377,2.377,0,0,0,2.377,2.377,2.378,2.378,0,0,0,2.378-2.377V535.565a2.378,2.378,0,0,0-2.378-2.377A2.377,2.377,0,0,0-6651.027,535.565Z" transform="translate(6811.092 19.338)" fill="#1d1d1d"/>
    <path id="Path_1460" data-name="Path 1460" d="M-6590.339,575.121v19.729a2.378,2.378,0,0,0,2.378,2.377,2.377,2.377,0,0,0,2.377-2.377V575.121a2.377,2.377,0,0,0-2.377-2.377A2.378,2.378,0,0,0-6590.339,575.121Z" transform="translate(6764.145 -11.264)" fill="#1d1d1d"/>
    <path id="Path_1461" data-name="Path 1461" d="M-6529.652,535.565V564.25a2.377,2.377,0,0,0,2.377,2.377,2.377,2.377,0,0,0,2.377-2.377V535.565a2.377,2.377,0,0,0-2.377-2.377A2.377,2.377,0,0,0-6529.652,535.565Z" transform="translate(6717.196 19.338)" fill="#1d1d1d"/>
    <path id="Path_1462" data-name="Path 1462" d="M-6468.964,483V523.59a2.377,2.377,0,0,0,2.377,2.377,2.377,2.377,0,0,0,2.377-2.377V483a2.377,2.377,0,0,0-2.377-2.377A2.377,2.377,0,0,0-6468.964,483Z" transform="translate(6670.248 59.998)" fill="#1d1d1d"/>
    <path id="Path_1463" data-name="Path 1463" d="M-6405.9,414.638a2.377,2.377,0,0,0-2.377,2.377v55.526a2.377,2.377,0,0,0,2.377,2.377,2.377,2.377,0,0,0,2.377-2.377V417.015A2.377,2.377,0,0,0-6405.9,414.638Z" transform="translate(6623.301 111.047)" fill="#1d1d1d"/>
  </g>
</svg>
